<svg width="400" height="200" viewBox="0 200 400 80" fill="none" xmlns="http://www.w3.org/2000/svg">
  <path d="M77.999 324.133v-32.818H6.969L0 273.557l51.025-116.212h39.562L46.08 258.272h31.919V229.95l7.418-20.455h31.469v48.777h15.06v26.974l-15.06 6.069v32.818z" fill="#3e404e"/>
  <g filter="url(#a)">
    <path d="M275.522 212.504c19.092 43.647-.814 94.506-44.46 113.597s-94.506-.814-113.597-44.461.814-94.505 44.461-113.597 94.505.815 113.596 44.461" fill="#d3d3d3"/>
    <path d="M162.158 221.853c2.938 6.715-.124 14.539-6.838 17.477s-14.54-.124-17.477-6.839c-2.938-6.714.124-14.539 6.838-17.477 6.715-2.937 14.54.125 17.477 6.839m81.047-35.136c1.686 1.956 1.368 4.515-.712 5.714s-5.133.586-6.82-1.37c-1.686-1.957-1.368-4.515.712-5.715 2.08-1.199 5.133-.586 6.82 1.371m30.476 61.995c2.626.915 3.729 4.6 2.464 8.233-1.264 3.632-4.418 5.836-7.044 4.921-2.625-.914-3.728-4.599-2.464-8.232s4.419-5.836 7.044-4.922" fill="#3e3e3e"/>
    <path d="M193.974 163.932c.17 1.481-2.791 3.036-6.612 3.473-3.821.438-7.056-.408-7.226-1.889s2.791-3.036 6.612-3.473 7.057.409 7.226 1.889" fill="url(#b)"/>
    <path d="M226.351 296.63c1.853 9.651-5.926 19.257-17.376 21.456s-22.235-3.841-24.089-13.492 5.926-19.257 17.377-21.456 22.234 3.842 24.088 13.492m-58.962-132.041c.576 1.178-2.855 4.037-7.662 6.385-4.807 2.349-9.17 3.298-9.746 2.12-.575-1.178 2.855-4.036 7.662-6.385 4.807-2.348 9.171-3.297 9.746-2.12" fill="#3e3e3e"/>
    <path d="M168.145 166.137c.993 2.032-2.099 5.583-6.906 7.932-4.807 2.348-9.509 2.605-10.502.573s2.099-5.584 6.906-7.933c4.807-2.348 9.509-2.604 10.502-.572" fill="#3e3e3e"/>
    <path d="M164.638 164.833c.167.343-2.426 1.954-5.793 3.599s-6.231 2.7-6.399 2.357c-.167-.342 2.426-1.953 5.793-3.598s6.231-2.701 6.399-2.358" fill="#d3d3d3"/>
    <path d="M107.249 259.788c2.04-.621 5.75 5.627 8.287 13.956 2.536 8.329 2.938 15.585.897 16.206s-5.751-5.627-8.287-13.956-2.938-15.584-.897-16.206" fill="#3e3e3e"/>
    <path d="M109.929 258.971c3.521-1.072 8.432 4.811 10.968 13.14s1.738 15.95-1.784 17.022c-3.521 1.073-8.431-4.81-10.968-13.139-2.536-8.329-1.737-15.95 1.784-17.023" fill="#3e3e3e"/>
    <path d="M106.932 264.272c.594-.181 2.515 4.401 4.291 10.234s2.735 10.709 2.141 10.89-2.515-4.402-4.291-10.235-2.735-10.709-2.141-10.889" fill="#d3d3d3"/>
    <path d="M180.004 330.329c.08-1.129 7.197-1.905 15.898-1.732 8.7.173 15.689 1.228 15.609 2.358s-7.198 1.905-15.898 1.733c-8.701-.173-15.689-1.229-15.609-2.359" fill="#3e3e3e"/>
    <path d="M180.109 328.845c.138-1.95 7.303-3.39 16.003-3.217 8.701.173 15.642 1.893 15.504 3.843s-7.303 3.389-16.003 3.217c-8.7-.173-15.642-1.894-15.504-3.843" fill="#3e3e3e"/>
    <path d="M184.136 331.265c.024-.329 4.982-.497 11.076-.376 6.093.121 11.014.485 10.991.814s-4.982.497-11.075.376c-6.094-.121-11.015-.485-10.992-.814m85.494-35.795c-1.696-.772-.516-7.009 2.637-13.931s7.082-11.907 8.778-11.134.515 7.009-2.637 13.931-7.082 11.907-8.778 11.134" fill="#3e3e3e"/>
    <path d="M267.401 294.457c-2.926-1.333-2.743-8.025.409-14.946 3.152-6.922 8.08-11.453 11.006-10.12s2.743 8.024-.409 14.946c-3.152 6.921-8.08 11.452-11.006 10.12" fill="#3e3e3e"/>
    <path d="M272.427 292.718c-.493-.225.897-4.337 3.104-9.185 2.208-4.848 4.398-8.595 4.891-8.371s-.896 4.337-3.104 9.185c-2.207 4.848-4.397 8.595-4.891 8.371" fill="#d3d3d3"/>
    <path d="M270.089 199.407c-.96.654-3.901-1.99-6.57-5.906s-4.056-7.62-3.097-8.274 3.901 1.99 6.571 5.906 4.055 7.62 3.096 8.274" fill="#3e3e3e"/>
    <path d="M268.829 200.266c-1.656 1.128-5.162-1.131-7.831-5.046s-3.491-8.005-1.836-9.133c1.656-1.129 5.162 1.13 7.831 5.046 2.669 3.915 3.491 8.004 1.836 9.133" fill="#3e3e3e"/>
    <path d="M269.526 197.026c-.279.19-2.021-1.879-3.891-4.621-1.869-2.742-3.158-5.119-2.879-5.31s2.021 1.879 3.89 4.621 3.159 5.12 2.88 5.31" fill="#d3d3d3"/>
    <path d="M216.353 235.466a8.294 8.294 0 0 1-8.294 8.294 8.294 8.294 0 1 1 8.294-8.294m-71.661 60.604c-2.082 1.793-6.194.434-9.183-3.036-2.99-3.471-3.726-7.738-1.644-9.532 2.083-1.794 6.194-.435 9.184 3.036s3.726 7.738 1.643 9.532m65.026-117.003c0 2.748-3.713 4.976-8.294 4.976-4.58 0-8.294-2.228-8.294-4.976 0-2.749 3.714-4.977 8.294-4.977 4.581 0 8.294 2.228 8.294 4.977m48.947 104.937c1.807 2.071.474 6.191-2.978 9.203s-7.715 3.774-9.522 1.703-.473-6.191 2.978-9.203 7.715-3.774 9.522-1.703" fill="#3e3e3e"/>
  </g>
  <g filter="url(#c)">
    <path d="M338.744 324.133v-32.818h-71.03l-6.969-17.758 51.026-116.212h39.561l-44.507 100.927h31.919V229.95l7.418-20.455h31.469v48.777h15.06v26.974l-15.06 6.069v32.818z" fill="#3e404e"/>
  </g>
  <defs>
    <filter id="a" x="94.947" y="156.792" width="187.827" height="180.56" filterUnits="userSpaceOnUse" color-interpolation-filters="sRGB">
      <feFlood flood-opacity="0" result="BackgroundImageFix"/>
      <feColorMatrix in="SourceAlpha" values="0 0 0 0 0 0 0 0 0 0 0 0 0 0 0 0 0 0 127 0" result="hardAlpha"/>
      <feOffset dx="-7"/>
      <feGaussianBlur stdDeviation="2"/>
      <feColorMatrix values="0 0 0 0 0 0 0 0 0 0 0 0 0 0 0 0 0 0 0.4 0"/>
      <feBlend in2="BackgroundImageFix" result="effect1_dropShadow_302_116"/>
      <feBlend in="SourceGraphic" in2="effect1_dropShadow_302_116" result="shape"/>
    </filter>
    <filter id="c" x="249.745" y="153.345" width="142.946" height="174.787" filterUnits="userSpaceOnUse" color-interpolation-filters="sRGB">
      <feFlood flood-opacity="0" result="BackgroundImageFix"/>
      <feColorMatrix in="SourceAlpha" values="0 0 0 0 0 0 0 0 0 0 0 0 0 0 0 0 0 0 127 0" result="hardAlpha"/>
      <feOffset dx="-7"/>
      <feGaussianBlur stdDeviation="2"/>
      <feColorMatrix values="0 0 0 0 0 0 0 0 0 0 0 0 0 0 0 0 0 0 0.4 0"/>
      <feBlend in2="BackgroundImageFix" result="effect1_dropShadow_302_116"/>
      <feBlend in="SourceGraphic" in2="effect1_dropShadow_302_116" result="shape"/>
    </filter>
    <linearGradient id="b" x1="186.748" y1="162.043" x2="187.362" y2="167.405" gradientUnits="userSpaceOnUse">
      <stop stop-color="white"/>
      <stop offset="1" stop-color="white"/>
    </linearGradient>
  </defs>
</svg>
