<svg width="403" height="338" viewBox="0 0 403 338" fill="none" xmlns="http://www.w3.org/2000/svg">
<path d="M224.554 37.2208C224.709 37.1835 224.608 37.488 224.608 37.488C224.235 37.7015 217.612 40.298 217.83 44.1686C217.907 45.5404 217.964 46.4011 218.949 47.5001C220.731 49.4891 223.69 49.2317 227.098 49.7695C230.96 50.3789 233.675 49.4372 237.48 50.1456C240.488 50.7054 242.974 50.6564 244.57 52.4374C245.797 53.8065 246.478 54.8951 245.838 56.6289C244.984 58.9442 242.785 60.1516 239.726 61.4376C237.433 62.4009 235.518 62.8106 233.006 63.2131C220.075 65.2853 215.281 54.6656 202.502 57.562C197.378 58.7233 193.464 59.0493 190.195 62.3712C187.442 65.1693 187.074 67.1051 187.86 70.101C188.709 73.3344 191.945 74.1498 195.12 76.3908C199.132 79.2218 203.233 79.4964 206.671 82.6819C208.652 84.5174 210.19 85.521 210.716 87.8947C211.08 89.535 210.82 90.561 210.308 92.2784C209.186 96.0423 203.008 101.917 203.008 101.917L202.181 101.154C202.181 101.154 208.097 96.049 209.249 92.3469C209.75 90.7403 210.045 89.776 209.713 88.2389C209.208 85.8954 207.485 84.9913 205.49 83.2053C202.006 80.0873 198.071 79.7167 194.145 76.8729C190.907 74.5279 187.652 73.6263 186.808 70.2777C186.038 67.2201 186.673 64.8922 189.462 62.037C192.721 58.7009 197.214 58.0092 202.776 56.7901C215.578 53.9846 220.386 64.79 233.28 62.4412C235.708 61.9989 237.223 61.9093 239.409 60.9273C242.055 59.7385 244.068 58.7357 244.78 56.6973C245.283 55.2546 244.949 54.3467 244.068 53.1453C242.611 51.1584 240.034 51.0105 236.871 50.3939C233.416 49.7203 230.934 50.6269 227.37 50.1515C223.698 49.6618 220.491 50.0007 218.575 47.8911C217.493 46.7003 217.462 45.7487 217.417 44.2512C217.302 40.3511 223.409 37.7279 224.554 37.2208Z" fill="#DDDDDD"/>
<path d="M224.554 37.2208C224.405 37.2719 224.608 37.488 224.608 37.488C224.608 37.488 236.055 32.2697 241.636 34.5032C243.614 35.2948 244.85 35.7983 245.943 37.1905C247.922 39.7102 245.968 42.0033 244.946 45.0872C243.787 48.5814 240.956 50.3111 239.973 53.812C239.196 56.5788 237.801 58.5941 239.572 60.8504C240.934 62.5848 242.174 63.7214 245.066 64.1165C248.929 64.6441 251.876 63.4795 255.397 61.6498C258.035 60.279 259.658 58.9234 261.587 57.0744C271.52 47.5557 258.442 37.9821 269.507 29.026C273.944 25.4351 276.507 22.3937 283.136 21.4731C288.72 20.6975 291.765 21.4228 295.755 23.659C300.062 26.0724 299.54 29.1624 301.148 32.9594C303.18 37.7561 301.401 41.2697 304.259 45.7838C305.906 48.3847 306.565 50.1807 309.778 51.8726C311.999 53.0418 313.648 53.3727 316.448 53.8639C322.585 54.9406 334.519 52.9859 334.519 52.9859L333.837 51.9022C333.837 51.9022 323.174 54.0501 317.112 53.0313C314.481 52.5891 312.904 52.3198 310.819 51.2316C307.639 49.5726 307.225 47.6782 305.658 45.0913C302.924 40.5753 304.473 37.1479 302.377 32.4143C300.649 28.5109 301.055 25.3596 296.576 22.8889C292.486 20.6329 288.721 19.9188 283.034 20.6935C276.39 21.5987 272.98 24.9208 268.225 28.8414C257.282 37.8645 270.625 47.5488 260.305 56.8898C258.362 58.6489 257.424 59.8455 254.815 61.119C251.657 62.6608 249.109 63.7816 245.73 63.2838C243.339 62.9315 242.18 62.1754 240.881 60.8144C238.732 58.5632 239.887 56.3682 240.663 53.4438C241.511 50.2486 244.166 48.6923 245.363 45.513C246.597 42.2378 248.803 39.7843 246.718 37.0912C245.541 35.5709 244.157 35.0399 241.977 34.2085C236.298 32.0432 225.526 36.8872 224.554 37.2208Z" fill="#DDDDDD"/>
<path d="M318.446 74.9701C318.446 74.9701 324.149 77.4667 325.231 86.287C325.521 88.8805 324.238 90.7963 322.4 92.618C320.519 94.5579 317.734 94.5645 316.051 96.5493C317.214 94.6702 316.875 92.4335 318.864 90.934C315.895 91.8906 314.362 94.1977 313.965 97.2108C313.611 100.106 312.327 102.021 309.137 102.336C310.762 101.026 310.213 99.221 310.14 97.4289C309.966 99.5328 308.349 100.525 306.507 100.954C304.264 101.532 303.294 102.143 301.578 103.848C302.454 100.768 300.947 99.0978 304.684 97.6441C306.734 96.8623 309 95.4099 307.356 92.8605C306.801 97.3415 303.058 95.9306 300.038 97.3235C297.903 98.3417 298.336 100.024 297.141 101.624C295.945 103.224 293.87 103.487 292 103.478C295.126 102.605 294.343 99.084 295.084 96.5971C295.916 93.7147 299.712 93.0582 301.292 90.4739C299.88 88.1693 298.494 90.9576 297.913 91.8972C296.96 93.3442 295.73 94.7442 293.681 93.9744C298.495 92.4296 295.226 86.6153 298.708 84.3194C300.044 83.4394 303.429 84.8011 304.107 83.2276C305.165 80.8285 300.995 82.0719 300.103 82.6851C300.336 81.3784 301.365 80.0925 302.653 79.4897C304.305 78.6975 305.471 79.7624 306.91 79.4818C308.829 79.1342 309.012 76.7122 306.865 76.656C306.07 76.6352 304.404 77.984 303.441 78.277C304.619 75.8413 307.503 73.5697 310.143 73.0023C313.424 72.2925 315.693 73.7841 318.446 74.9701Z" fill="url(#paint0_linear_302_116)"/>
<path d="M320.035 78.0527C320.608 78.697 320.568 78.7352 321.094 79.5724C322.221 81.3248 322.444 83.8606 320.758 85.3125C319.795 86.1145 318.662 85.8898 317.632 86.4591C316.543 87.047 316.493 88.2455 315.913 89.1676C315.863 88.5096 315.865 87.9875 315.718 87.3477C315.656 86.9603 315.558 86.5338 315.709 86.1679C315.293 86.8597 315.22 87.6712 314.766 88.3626C314.188 89.2074 313.326 89.469 312.384 89.7685C311.424 90.0484 310.491 90.1545 309.446 90.1435C309.02 90.1389 308.463 90.0363 308.07 90.1869C307.557 90.4135 307.363 90.8949 306.962 91.2388C307.191 89.9068 307.278 89.2309 308.687 88.859C310.135 88.4876 310.206 87.2313 311.154 86.3324C310.339 86.8459 309.303 87.0864 308.748 86.0169C310.466 86.5765 311.177 85.3077 311.413 83.8211C311.667 82.3927 311.623 81.1352 312.787 80.1419C312.072 80.115 311.711 80.8654 311.268 81.2862C310.745 81.7448 310.157 81.9319 309.474 82.0601C309.555 81.9836 309.674 81.9075 309.716 81.8306C309.988 81.35 310.485 81.0265 310.757 80.5459C311.008 80.0844 311.162 79.6412 311.357 79.1598C311.745 78.197 312.748 77.3567 313.622 76.8245C315.072 75.9309 317.731 76.2298 319.457 77.5244L319.626 77.6616C319.776 77.7792 319.905 77.916 320.035 78.0527Z" fill="#FFC929"/>
<path d="M320.531 78.578C321.15 79.3149 321.24 79.9126 321.219 80.8761C321.185 81.9522 320.194 82.7118 319.491 83.4187C319.662 83.0957 319.618 82.7764 319.657 82.4185C319.278 82.8378 318.923 82.6731 318.497 82.9166C318.05 83.18 317.813 83.7267 317.397 84.0012C317.591 83.5353 317.069 83.0475 317.406 82.627C316.951 82.7978 317.113 83.3669 316.799 83.6445C316.528 83.8824 315.93 83.9873 315.629 84.1526C315.663 84.0407 316.456 82.9263 315.855 83.2362C315.74 83.3046 315.639 83.722 315.472 83.8605C315.326 83.9587 315.109 84.0239 314.934 84.0698C314.532 84.1704 314.124 84.0759 313.761 84.2598C313.346 84.4728 313.142 84.8667 312.928 85.2705C313.16 84.5287 313.017 84.0422 313.663 83.5491C313.977 83.2919 314.105 83.0701 314.327 82.7589C314.517 82.498 314.766 82.3825 315.017 82.1439C314.222 81.9351 314.069 82.8024 313.409 82.9874C313.785 82.6911 313.671 82.2568 313.793 81.8605C313.924 81.4747 314.25 81.1051 314.633 80.9424C314.913 80.8175 315.638 80.932 315.597 80.4691C315.558 79.9243 314.782 80.2186 314.553 80.3963C314.695 80.0006 315.021 79.6105 315.485 79.5117C315.887 79.4316 316.292 79.6491 316.487 79.1832C316.149 78.7011 315.667 79.1788 315.206 79.1545C315.863 78.6308 316.165 77.5014 317.196 77.7072C317.472 77.7669 318.135 78.4025 318.176 77.9217C318.205 77.5328 317.514 77.245 317.216 77.2872C318.219 76.9177 319.65 77.587 320.4 78.4407L320.531 78.578Z" fill="#F9F079"/>
<path d="M314.84 67.7431C314.01 69.1379 313.236 70.487 312.513 71.7806C311.789 73.0742 314.483 77.3605 317.266 80.286C320.027 83.1881 325.188 87.1975 326.519 86.5417C327.85 85.8859 329.236 85.1843 330.673 84.429L314.84 67.7431Z" fill="url(#paint1_linear_302_116)"/>
<path d="M355.611 70.215C372.566 59.349 389.56 44.9033 397.489 24.4326L378.258 4.16541C357.402 11.0103 342.082 27.2219 330.343 43.5852L319.073 60.7633C318.038 62.453 317.047 64.0853 316.084 65.6849L332.794 83.2961C334.44 82.4163 336.127 81.5135 337.866 80.5691L355.611 70.215ZM376.561 25.0344C378.746 27.4287 378.664 31.0985 376.345 33.299C374.029 35.4969 370.354 35.3911 368.079 33.083C365.892 30.6886 365.98 27.0146 368.297 24.8167C370.616 22.6162 374.284 22.7262 376.561 25.0344Z" fill="url(#paint2_linear_302_116)"/>
<path d="M339.568 85.2058L337.866 80.5697L355.611 70.2156C354.976 73.5887 353.962 86.9915 353.962 86.9915L333.783 103.864L330.074 99.955L339.568 85.2058Z" fill="url(#paint3_linear_302_116)"/>
<path d="M313.504 44.3541C313.504 44.3541 326.939 44.0409 330.343 43.5857L319.072 60.7638L314.532 58.8211L299.305 67.5279L295.597 63.6202L313.504 44.3541Z" fill="url(#paint4_linear_302_116)"/>
<path d="M398.356 21.9728C400.534 15.4507 403.093 0.244267 402.879 0.0193301C402.664 -0.207371 387.39 1.59812 380.763 3.43183L398.356 21.9728Z" fill="url(#paint5_linear_302_116)"/>
<path d="M314.84 67.743L330.673 84.4289L332.794 83.296L316.084 65.6848L314.84 67.743Z" fill="url(#paint6_linear_302_116)"/>
<path d="M378.258 4.16578L397.488 24.433L398.356 21.9732L380.764 3.43225L378.258 4.16578Z" fill="url(#paint7_linear_302_116)"/>
<path d="M376.346 33.2987C378.665 31.0983 378.746 27.4285 376.562 25.0341C374.284 22.726 370.616 22.6159 368.297 24.8164C365.981 27.0144 365.893 30.6883 368.079 33.0827C370.355 35.3908 374.029 35.4967 376.346 33.2987Z" fill="url(#paint8_linear_302_116)"/>
<path d="M77.9988 324.133V291.315H6.96819L0 273.557L51.0252 157.345H90.5865L46.08 258.272H77.9988V229.95L85.4166 209.495H116.886V258.272H131.946V285.246L116.886 291.315V324.133H77.9988Z" fill="#3E404E"/>
<g filter="url(#filter0_d_302_116)">
<path d="M275.522 212.504C294.614 256.151 274.708 307.01 231.062 326.101C187.415 345.192 136.556 325.287 117.465 281.64C98.3736 237.994 118.279 187.135 161.926 168.043C205.572 148.952 256.431 168.858 275.522 212.504Z" fill="#22C1C3"/>
<path d="M162.158 221.853C165.096 228.568 162.034 236.392 155.32 239.33C148.605 242.268 140.78 239.206 137.843 232.491C134.905 225.777 137.967 217.952 144.681 215.014C151.396 212.077 159.221 215.139 162.158 221.853Z" fill="#FDBB2D"/>
<path d="M243.205 186.717C244.891 188.673 244.573 191.232 242.493 192.431C240.413 193.631 237.36 193.017 235.673 191.061C233.987 189.104 234.305 186.546 236.385 185.346C238.465 184.147 241.518 184.76 243.205 186.717Z" fill="#FDBB2D"/>
<path d="M273.681 248.712C276.307 249.627 277.41 253.312 276.145 256.945C274.881 260.577 271.727 262.781 269.101 261.866C266.476 260.952 265.373 257.267 266.637 253.634C267.902 250.002 271.056 247.798 273.681 248.712Z" fill="#FDBB2D"/>
<path d="M193.974 163.932C194.144 165.413 191.183 166.968 187.362 167.405C183.541 167.843 180.306 166.997 180.136 165.516C179.967 164.035 182.927 162.48 186.748 162.043C190.57 161.606 193.805 162.452 193.974 163.932Z" fill="url(#paint13_linear_302_116)"/>
<path d="M226.351 296.63C228.204 306.281 220.425 315.887 208.975 318.086C197.524 320.285 186.74 314.245 184.886 304.594C183.033 294.943 190.812 285.337 202.263 283.138C213.713 280.939 224.497 286.98 226.351 296.63Z" fill="#FDBB2D"/>
<path d="M167.389 164.589C167.965 165.767 164.534 168.626 159.727 170.974C154.92 173.323 150.557 174.272 149.981 173.094C149.406 171.916 152.836 169.058 157.643 166.709C162.45 164.361 166.814 163.412 167.389 164.589Z" fill="#FDBB2D"/>
<path d="M168.145 166.137C169.138 168.169 166.046 171.72 161.239 174.069C156.432 176.417 151.73 176.674 150.737 174.642C149.744 172.609 152.836 169.058 157.643 166.709C162.45 164.361 167.152 164.105 168.145 166.137Z" fill="#FDBB2D"/>
<path d="M164.638 164.833C164.805 165.176 162.212 166.787 158.845 168.432C155.479 170.077 152.614 171.132 152.446 170.789C152.279 170.447 154.872 168.836 158.239 167.191C161.606 165.546 164.47 164.49 164.638 164.833Z" fill="#22C1C3"/>
<path d="M107.249 259.788C109.289 259.167 112.999 265.415 115.536 273.744C118.072 282.073 118.474 289.329 116.433 289.95C114.392 290.571 110.682 284.323 108.146 275.994C105.61 267.665 105.208 260.41 107.249 259.788Z" fill="#FDBB2D"/>
<path d="M109.929 258.971C113.45 257.899 118.361 263.782 120.897 272.111C123.433 280.44 122.635 288.061 119.113 289.133C115.592 290.206 110.682 284.323 108.145 275.994C105.609 267.665 106.408 260.044 109.929 258.971Z" fill="#FDBB2D"/>
<path d="M106.932 264.272C107.526 264.091 109.447 268.673 111.223 274.506C112.999 280.34 113.958 285.215 113.364 285.396C112.771 285.577 110.849 280.994 109.073 275.161C107.297 269.328 106.338 264.452 106.932 264.272Z" fill="#22C1C3"/>
<path d="M180.004 330.329C180.084 329.2 187.201 328.424 195.902 328.597C204.602 328.77 211.591 329.825 211.511 330.955C211.431 332.085 204.313 332.86 195.613 332.688C186.912 332.515 179.924 331.459 180.004 330.329Z" fill="#FDBB2D"/>
<path d="M180.109 328.845C180.247 326.895 187.412 325.455 196.112 325.628C204.813 325.801 211.754 327.521 211.616 329.471C211.478 331.42 204.313 332.86 195.613 332.688C186.913 332.515 179.971 330.794 180.109 328.845Z" fill="#FDBB2D"/>
<path d="M184.136 331.265C184.16 330.936 189.118 330.768 195.212 330.889C201.305 331.01 206.226 331.374 206.203 331.703C206.18 332.032 201.221 332.2 195.128 332.079C189.034 331.958 184.113 331.594 184.136 331.265Z" fill="#FDBB2D"/>
<path d="M269.63 295.47C267.934 294.698 269.114 288.461 272.267 281.539C275.419 274.617 279.349 269.632 281.045 270.405C282.741 271.177 281.56 277.414 278.408 284.336C275.256 291.258 271.326 296.243 269.63 295.47Z" fill="#FDBB2D"/>
<path d="M267.401 294.457C264.475 293.124 264.658 286.432 267.81 279.511C270.962 272.589 275.89 268.058 278.816 269.391C281.742 270.724 281.559 277.415 278.407 284.337C275.255 291.258 270.327 295.789 267.401 294.457Z" fill="#FDBB2D"/>
<path d="M272.427 292.718C271.934 292.493 273.324 288.381 275.531 283.533C277.739 278.685 279.929 274.938 280.422 275.162C280.916 275.387 279.526 279.499 277.318 284.347C275.111 289.195 272.921 292.942 272.427 292.718Z" fill="#22C1C3"/>
<path d="M270.089 199.407C269.129 200.061 266.188 197.417 263.519 193.501C260.849 189.586 259.463 185.881 260.422 185.227C261.382 184.573 264.323 187.217 266.993 191.133C269.662 195.049 271.048 198.753 270.089 199.407Z" fill="#FDBB2D"/>
<path d="M268.829 200.266C267.173 201.394 263.667 199.135 260.998 195.22C258.329 191.304 257.507 187.215 259.162 186.087C260.818 184.958 264.324 187.217 266.993 191.133C269.662 195.048 270.484 199.137 268.829 200.266Z" fill="#FDBB2D"/>
<path d="M269.526 197.026C269.247 197.216 267.505 195.147 265.635 192.405C263.766 189.663 262.477 187.286 262.756 187.095C263.035 186.905 264.777 188.974 266.646 191.716C268.516 194.458 269.805 196.836 269.526 197.026Z" fill="#22C1C3"/>
<path d="M216.353 235.466C216.353 240.047 212.64 243.76 208.059 243.76C203.478 243.76 199.765 240.047 199.765 235.466C199.765 230.886 203.478 227.172 208.059 227.172C212.64 227.172 216.353 230.886 216.353 235.466Z" fill="#FDBB2D"/>
<path d="M144.692 296.07C142.61 297.863 138.498 296.504 135.509 293.034C132.519 289.563 131.783 285.296 133.865 283.502C135.948 281.708 140.059 283.067 143.049 286.538C146.039 290.008 146.775 294.276 144.692 296.07Z" fill="#FDBB2D"/>
<path d="M209.718 179.067C209.718 181.815 206.005 184.043 201.424 184.043C196.844 184.043 193.13 181.815 193.13 179.067C193.13 176.318 196.844 174.09 201.424 174.09C206.005 174.09 209.718 176.318 209.718 179.067Z" fill="#FDBB2D"/>
<path d="M258.665 284.004C260.472 286.075 259.139 290.195 255.687 293.207C252.235 296.218 247.972 296.981 246.165 294.91C244.358 292.839 245.692 288.719 249.143 285.707C252.595 282.696 256.858 281.933 258.665 284.004Z" fill="#FDBB2D"/>
</g>
<path d="M126.384 175.357L130.251 176.86L142.709 172.349C142.709 172.349 145.274 174.493 146.791 176.001C147.927 177.131 148.812 177.604 149.583 179.008C149.891 179.568 150.423 179.904 150.228 180.512C150.063 181.023 149.653 181.174 149.154 181.371C148.529 181.618 148.101 181.458 147.435 181.371C145.872 181.167 143.998 179.653 143.354 180.082C142.709 180.512 142.642 181.534 142.28 182.875C141.918 184.215 144.494 187.906 143.354 190.823C143.039 191.627 143.054 192.374 142.28 192.756C141.678 193.053 141.205 192.944 140.561 192.756C139.364 192.406 139.155 191.396 138.413 190.393C137.03 188.523 135.836 185.023 135.836 185.023C135.836 185.023 136.666 187.74 136.91 189.534C137.08 190.784 137.434 191.533 137.124 192.756C136.968 193.375 137.015 193.911 136.48 194.26C136.122 194.493 135.834 194.474 135.406 194.474C134.978 194.474 134.721 194.438 134.332 194.26C133.629 193.937 133.466 193.404 133.043 192.756C132.447 191.843 132.376 191.19 131.969 190.178C131.068 187.937 129.821 184.379 129.821 184.379C129.821 184.379 130.24 188.341 129.821 190.823C129.692 191.585 130.044 192.341 129.391 192.756C129.1 192.942 128.878 192.971 128.532 192.971C128.186 192.971 127.986 192.904 127.673 192.756C126.853 192.368 126.8 191.629 126.384 190.823C125.739 189.573 125.568 188.768 125.31 187.386C124.91 185.242 124.777 183.986 124.881 181.801C124.945 180.45 124.991 179.679 125.31 178.364C125.604 177.152 126.384 175.357 126.384 175.357Z" fill="#C0C0C0"/>
<path d="M129.821 115.211C129.821 115.211 143.475 100.497 154.739 95.0196C166.767 89.1696 188.248 87.931 188.248 87.931C188.248 87.931 196.968 100.561 201.137 109.412C207.402 122.714 211.877 145.499 211.877 145.499L164.834 173.209C164.834 173.209 152.056 158.583 145.502 148.077C137.975 136.011 129.821 115.211 129.821 115.211Z" fill="#CACACA"/>
<path d="M146.576 92.4419C135.312 97.9196 121.658 112.634 121.658 112.634C121.658 112.634 129.813 133.433 137.339 145.499C143.893 156.005 156.671 170.631 156.671 170.631L164.834 173.209C164.834 173.209 152.056 158.583 145.502 148.077C137.975 136.011 129.821 115.211 129.821 115.211C129.821 115.211 143.475 100.497 154.739 95.0195C166.767 89.1695 188.248 87.9309 188.248 87.9309C188.248 87.9309 196.968 100.561 201.137 109.412C206.925 121.699 211.184 142.078 211.8 145.116L211.877 145.069C211.877 145.069 209.09 124.287 203.714 112.204C199.145 101.935 188.248 87.9309 188.248 87.9309L180.086 85.3533C180.086 85.3533 158.605 86.5919 146.576 92.4419Z" fill="#ACAAAA"/>
<path d="M121.658 112.634C121.658 112.634 129.813 133.433 137.339 145.499C143.893 156.005 156.671 170.631 156.671 170.631L164.834 173.209C164.834 173.209 152.056 158.583 145.502 148.077C137.975 136.011 129.821 115.211 129.821 115.211L121.658 112.634Z" fill="#BBB8B8"/>
<path d="M135.836 185.023C135.836 185.023 137.03 188.523 138.413 190.394C139.155 191.396 139.364 192.407 140.561 192.756C141.205 192.945 141.678 193.053 142.28 192.756C142.882 192.46 142.426 191.828 142.065 191.468C141.705 191.107 141.226 191.493 140.777 191.253C140.015 190.846 140.157 190.054 139.702 189.32C139.163 188.449 138.713 188.057 138.199 187.172C137.822 186.523 137.938 185.906 137.34 185.453C136.852 185.085 135.836 185.023 135.836 185.023Z" fill="#D6D6D6"/>
<path d="M129.82 184.379C129.82 184.379 131.067 187.938 131.968 190.179C132.375 191.19 132.446 191.843 133.043 192.756C133.465 193.404 133.629 193.937 134.331 194.26C134.72 194.438 134.978 194.475 135.405 194.475C135.833 194.475 135.644 193.96 135.621 193.615C135.575 192.962 135.793 192.855 135.406 192.327C134.827 191.538 134.512 191.685 134.05 190.823C133.482 189.764 132.92 188.468 132.398 187.386C131.99 186.542 132.386 185.931 131.754 185.238C131.392 184.841 130.642 184.467 129.82 184.379Z" fill="#D6D6D6"/>
<path d="M125.31 178.364C124.991 179.679 124.945 180.45 124.881 181.801C124.777 183.986 124.91 185.242 125.31 187.386C125.568 188.769 125.739 189.574 126.384 190.823C126.8 191.63 126.853 192.368 127.673 192.756C127.986 192.904 128.186 192.971 128.532 192.971C128.532 192.971 127.585 190.128 127.244 188.246C126.972 186.751 126.718 185.895 126.814 184.379C126.907 182.917 127.116 182.082 127.673 180.727C128.363 179.049 130.251 176.861 130.251 176.861L126.384 175.357C126.384 175.357 125.604 177.153 125.31 178.364Z" fill="#D6D6D6"/>
<path d="M142.996 107.661C142.952 107.346 143.221 107.082 143.537 107.111C145.16 107.258 146.434 107.224 148.295 107.049C152.104 106.689 154.182 105.862 157.746 104.471C159.46 103.802 160.403 103.372 162.042 102.538C165.133 100.965 166.777 99.8805 169.56 97.8121C172.216 95.8384 173.929 94.8835 175.96 92.3425C176.112 92.1533 176.378 92.0923 176.585 92.2178C179.23 93.82 179.282 96.5809 180.515 98.6713C180.515 98.6713 175.439 100.555 172.568 103.182C169.458 106.028 167.309 107.087 163.331 108.767C159.586 110.35 156.839 111.049 152.806 111.56C149.294 112.004 145.502 114.137 145.502 114.137C144.163 111.563 143.324 110.046 142.996 107.661Z" fill="url(#paint23_linear_302_116)"/>
<path d="M211.233 204.141C211.405 203.149 211.233 201.563 211.233 201.563L226.269 205.43L225.195 209.082C225.195 209.082 230.823 215.141 231.639 220.037C232.069 222.614 230.844 228.414 227.128 228.414C220.47 228.414 217.834 225.402 214.025 220.896C210.626 216.875 207.437 213.504 208.87 208.437C209.391 206.595 210.906 206.028 211.233 204.141Z" fill="#C0C0C0"/>
<path d="M225.195 209.081L226.269 205.43H220.899C220.899 205.43 219.871 207.36 220.04 208.652C220.258 210.315 221.249 211.119 222.617 212.089C224.047 213.101 225.475 212.379 226.914 213.377C228.237 214.296 228.56 215.284 229.491 216.599C230.406 217.891 231.639 220.036 231.639 220.036C230.823 215.14 225.195 209.081 225.195 209.081Z" fill="#9C9C9C"/>
<path d="M211.233 204.141C210.906 206.028 209.391 206.595 208.87 208.437C207.437 213.504 210.626 216.875 214.025 220.896C217.834 225.402 220.47 228.414 227.128 228.414C227.128 228.414 222.501 227.293 220.04 225.622C217.337 223.786 216.187 222.163 214.455 219.392C213.322 217.579 212.53 216.545 212.092 214.452C211.714 212.645 211.501 211.474 212.092 209.726C212.54 208.404 213.468 207.999 214.025 206.719C214.545 205.525 214.885 203.497 214.885 203.497L211.233 201.563C211.233 201.563 211.405 203.149 211.233 204.141Z" fill="#D6D6D6"/>
<path d="M143.225 108.982C144.513 109.412 147.325 109.609 149.412 109.412C153.221 109.052 155.471 108.44 159.035 107.049C160.749 106.38 161.691 105.95 163.331 105.115C166.422 103.543 168.495 102.243 171.279 100.175C174.047 98.118 177.25 95.8788 178.325 93.7307C178.754 94.1603 179.216 95.423 179.7 97.1676C179.7 97.1676 176.557 102.488 173.685 105.115C170.576 107.961 168.427 109.02 164.449 110.7C160.704 112.283 157.957 112.982 153.923 113.493C150.412 113.938 144.902 112.634 144.902 112.634C144.471 112.634 143.439 110.271 143.225 108.982Z" fill="url(#paint24_linear_302_116)"/>
<path d="M228.417 89.6495C228.417 89.6495 229.893 89.5242 230.78 89.2199C231.774 88.8789 232.296 88.5534 233.143 87.9311C234.099 87.2287 234.445 86.6149 235.291 85.783C237.83 83.2861 241.95 79.5537 241.95 79.5537C241.95 79.5537 242.748 79.1974 243.239 79.3389C243.642 79.4552 243.833 79.6578 244.098 79.9833C244.334 80.2745 244.453 80.4748 244.528 80.8425C244.628 81.3427 244.433 81.6356 244.313 82.1313C243.768 84.3694 241.091 86.9754 241.52 87.2867L241.95 87.5015C242.379 87.5015 244.437 85.4535 246.246 84.4942C247.142 84.0194 247.627 83.672 248.609 83.4202C249.506 83.19 250.192 82.7051 250.972 83.2054C251.481 83.532 251.672 83.9106 251.831 84.4942C251.963 84.9798 251.889 85.2831 251.831 85.783C251.51 88.553 246.224 89.8643 246.676 90.7236C246.816 90.9913 246.835 91.2327 247.105 91.368C247.535 91.5828 249.219 91.3945 250.542 91.1532C252.291 90.8342 253.067 89.7969 254.838 89.6495C255.423 89.6008 255.786 89.4606 256.342 89.6495C256.962 89.8603 257.497 90.0822 257.631 90.7236C257.739 91.2429 257.449 91.5435 257.201 92.0124C256.757 92.8512 256.232 93.1482 255.483 93.7308C254.298 94.6521 253.436 94.8844 252.046 95.4493C250.028 96.269 248.583 95.9026 246.676 96.9529C245.779 97.4467 244.528 97.4326 244.528 98.4565C244.528 99.9602 248.816 100.609 249.253 103.182C249.38 103.927 249.694 104.503 249.253 105.116C248.834 105.697 248.242 105.643 247.535 105.76C245.781 106.05 244.946 104.751 243.239 104.256C241.421 103.73 240.395 103.386 238.513 103.182C236.762 102.993 234.002 103.182 234.002 103.182L233.358 92.8716L228.417 89.6495Z" fill="#C0C0C0"/>
<path d="M254.838 89.6495C253.066 89.7968 252.29 90.8341 250.542 91.1531C250.112 91.3679 250.111 91.3689 249.897 91.5827L249.897 91.5827C249.683 91.7966 249.408 91.9306 249.468 92.2272C249.527 92.5238 249.827 92.5551 250.112 92.6568C250.764 92.8895 251.184 92.4745 251.831 92.2272C252.356 92.026 252.583 91.7528 253.119 91.5827C253.606 91.4285 253.903 91.443 254.408 91.3679C255.077 91.2685 255.465 91.291 256.127 91.1531C256.725 91.0287 257.764 91.3649 257.63 90.7235C257.497 90.0821 256.962 89.8603 256.341 89.6495C255.785 89.4605 255.423 89.6008 254.838 89.6495Z" fill="#D6D6D6"/>
<path d="M246.246 84.4943C244.527 85.5683 243.453 86.4276 243.453 86.4276C243.453 86.4276 242.979 86.8241 243.238 87.2868C243.577 87.8901 244.297 87.9214 244.957 87.7164C245.472 87.4882 245.736 87.3097 246.246 87.072C246.825 86.8021 247.201 86.7537 247.75 86.4276C248.517 85.9724 248.714 85.3993 249.468 84.9239C249.944 84.6239 250.446 84.7484 250.757 84.2795C250.994 83.923 251.752 83.7058 250.972 83.2055C250.192 82.7051 249.507 83.1901 248.609 83.4203C247.627 83.672 247.106 83.9572 246.246 84.4943Z" fill="#D6D6D6"/>
<path d="M230.78 89.2199C229.893 89.5242 229.213 89.1529 228.417 89.6496C226.463 90.8694 231.086 93.2518 233.358 92.8716C234.621 92.6603 234.985 91.6845 236.15 91.1532C236.802 90.8558 237.289 90.9306 237.869 90.5088C238.398 90.1231 238.725 89.8378 238.943 89.2199C239.288 88.2414 238.14 87.6677 238.298 86.6423C238.491 85.3988 239.484 85.077 240.231 84.0646C240.909 83.1465 241.159 82.5236 241.95 81.7017C242.695 80.9279 244.362 80.3088 244.098 79.9833C243.833 79.6578 243.642 79.4552 243.239 79.3389C242.748 79.1974 241.95 79.5537 241.95 79.5537C241.95 79.5537 237.83 83.2861 235.291 85.7831C234.445 86.6149 234.099 87.2287 233.143 87.9311C232.296 88.5535 231.774 88.8789 230.78 89.2199Z" fill="#D6D6D6"/>
<path d="M186.052 229.405C186.791 228.365 188.017 226.795 188.017 226.795L195.875 228.1L200.922 226.266L204.389 218.748C204.389 218.748 205.226 220.855 205.698 222.228C206.162 223.574 206.573 224.3 206.79 225.708C207.222 228.51 206.652 230.214 205.698 232.885C204.287 236.839 202.317 238.588 199.368 241.585C196.515 244.484 191.073 247.892 191.073 247.892C191.073 247.892 185.13 250.747 182.341 248.762C180.841 247.694 180.259 246.605 179.722 244.847C178.807 241.851 180.328 239.936 181.468 237.017C182.731 233.787 184.042 232.235 186.052 229.405Z" fill="#C0C0C0"/>
<path d="M205.698 222.228C205.225 220.855 204.388 218.748 204.388 218.748C204.388 218.748 199.778 223.242 200.922 226.266C201.531 227.876 203.341 227.87 203.929 229.488C204.827 231.957 203.227 233.611 201.996 235.932C201.014 237.785 200.178 238.67 198.774 240.228C197.184 241.993 196.467 242.764 194.907 244.31C193.452 245.752 191.073 247.892 191.073 247.892C191.073 247.892 196.515 244.484 199.368 241.585C202.316 238.588 204.286 236.839 205.698 232.885C206.652 230.214 207.222 228.51 206.79 225.708C206.573 224.3 206.162 223.574 205.698 222.228Z" fill="#9C9C9C"/>
<path d="M186.053 229.405C184.043 232.235 182.731 233.787 181.469 237.018C180.328 239.936 178.808 241.851 179.722 244.847C180.259 246.607 181.16 248.176 182.342 248.762C182.235 248.089 182.018 248.444 181.805 247.102C181.591 245.761 181.299 244.48 181.469 242.806C181.673 240.785 182.239 239.708 183.093 237.866C184.01 235.89 184.478 234.644 186.053 233.14C186.751 232.472 187.221 232.183 188.017 231.636C190.791 229.73 196.409 230.775 195.876 228.1C195.267 225.049 188.017 226.795 188.017 226.795C188.017 226.795 186.791 228.365 186.053 229.405Z" fill="#D6D6D6"/>
<path d="M143.845 111.058C149.215 111.058 150.615 111.108 154.739 110.271C158.898 109.426 161.23 108.685 165.049 106.834C168.546 105.139 170.468 103.983 173.427 101.464C175.957 99.3087 177.938 97.1676 179.226 95.2344C180.086 96.3084 180.043 96.7988 180.945 97.3824C181.26 97.5863 181.448 97.6954 181.804 97.8121C183.344 98.3159 184.098 96.6982 185.671 96.3084C187.632 95.8224 188.811 96.0303 190.826 95.8788C195.183 95.5511 197.638 95.5533 201.996 95.2344C205.859 94.9517 208.058 95.0249 211.877 94.3752C218.024 93.3292 220.901 89.9613 227.128 89.6494C228.385 89.5865 229.122 89.3763 230.35 89.6494C233.077 90.2558 234.064 92.1255 235.72 94.3752C236.899 95.9766 237.766 96.9228 238.083 98.8861C238.453 101.177 238.341 102.956 236.794 104.686C235.059 106.628 232.757 105.409 230.35 106.404C227.638 107.526 226.716 109.423 223.906 110.271C222.043 110.833 220.849 110.429 218.965 110.915C215.587 111.787 214.26 113.707 211.018 114.997C208.725 115.909 207.428 116.476 205.003 116.93C203.264 117.255 202.258 117.249 200.492 117.359C197.143 117.568 196.84 116.5 192.759 117.359C192.759 118.433 192.782 118.822 193.404 119.722C194.758 121.685 195.804 122.567 197.27 124.448C202.563 131.237 203.236 136.809 209.299 142.921C210.046 143.674 210.666 143.922 211.259 144.801C212.081 146.019 211.596 147.144 212.36 148.399C213.611 150.455 215.299 150.782 217.422 151.916C218.996 152.758 220.1 152.786 221.624 153.715C223.444 154.826 224.213 155.816 225.732 157.313C226.989 158.553 227.54 159.397 228.793 160.643C230.553 162.393 232.063 162.861 233.572 164.831C234.896 166.559 235.519 167.689 236.15 169.772C236.666 171.475 236.889 172.506 236.794 174.283C236.683 176.377 235.87 177.423 235.291 179.438C233.992 183.957 233.669 186.617 232.069 191.038C230.471 195.451 228.471 197.496 227.128 201.993C226.487 204.138 227.415 205.988 225.839 207.578C224.419 209.01 222.915 209.044 220.899 209.081C218.905 209.118 217.739 208.69 215.958 207.793C214.722 207.169 214.002 206.766 213.058 205.752C211.921 204.529 210.357 203.651 210.158 201.993C209.514 196.623 210.488 194.776 211.662 190.393C212.243 188.226 213.605 187.265 213.703 185.023C213.782 183.223 213.52 182.134 212.736 180.512C208.655 178.149 206.292 178.149 198.559 176.646C198.129 176.646 196.84 176.646 195.981 180.727C195.552 183.52 196.315 186.259 197.27 189.964C198.154 193.392 198.402 195.38 199.418 198.771C200.782 203.323 202.119 205.679 203.714 210.155C204.489 212.33 205.325 213.455 205.648 215.74C205.882 217.402 205.923 218.382 205.648 220.036C205.154 222.997 204.449 224.841 202.64 227.34C201.7 228.638 201.271 229.611 199.848 230.347C198.276 231.16 197.106 230.74 195.337 230.777C193.657 230.811 192.691 230.875 191.041 230.562C189.659 230.3 188.765 230.282 187.604 229.488C186.522 228.748 186.233 227.966 185.456 226.91C183.032 223.616 182.123 221.301 180.515 217.459C178.456 212.537 177.805 209.564 176.649 204.356C176.167 202.187 176.055 200.939 175.575 198.771C174.633 194.518 175.059 193.585 172.997 189.749C171.801 187.524 169.795 185.093 168.808 182.768C167.857 180.526 168.272 178.831 167.197 176.646C165.809 173.824 165.909 176.646 162.686 170.202C159.797 164.422 156.242 162.038 154.524 155.81C154.226 154.731 154.111 154.112 153.879 153.017C153.597 151.681 153.5 150.92 153.235 149.58C152.5 145.867 152.161 141.632 151.087 140.129C150.67 140.085 150.432 140.107 150.013 140.129C146.576 140.303 149.426 152.992 146.146 160.321C145.533 161.69 144.83 162.312 144.428 163.757C143.867 165.778 144.869 167.077 144.428 169.128C143.939 171.402 143.385 172.75 141.85 174.498C140.499 176.037 139.501 176.87 137.554 177.505C135.481 178.181 134.14 177.716 131.969 177.505C130.102 177.324 128.865 177.59 127.243 176.646C125.858 175.839 125.064 175.119 124.451 173.638C123.777 172.011 124.641 170.879 124.451 169.128C124.276 167.508 123.85 166.654 123.592 165.046C123.364 163.629 122.968 162.817 123.162 161.395C123.306 160.343 123.774 159.849 124.021 158.817C124.395 157.258 124.416 156.338 124.451 154.736C124.495 152.716 123.922 151.598 124.021 149.58C124.084 148.312 124.287 147.617 124.451 146.358C124.899 142.922 124.552 140.877 125.525 137.551C125.875 136.354 126.061 135.669 126.599 134.544C127.151 133.389 127.607 132.817 128.318 131.751C129.183 130.453 129.826 129.835 130.68 128.529C132.529 125.704 132.761 123.662 134.547 120.796C135.408 119.414 135.85 118.596 136.91 117.359C138.734 115.23 139.773 113.521 142.495 112.848C142.99 112.726 143.407 112.979 143.784 112.634C144.221 112.233 143.684 111.628 143.845 111.058Z" fill="url(#paint25_linear_302_116)"/>
<path d="M211.261 144.801C210.667 143.922 210.047 143.674 209.3 142.921C203.237 136.81 202.565 131.237 197.271 124.448C195.805 122.567 194.759 121.685 193.405 119.722C192.784 118.822 192.76 117.359 192.76 117.359C192.76 117.359 190.61 116.9 189.538 116.071C187.14 114.216 188.034 108.552 187.604 108.552C183.037 108.553 188.278 115.66 189.109 120.152C189.608 122.854 189.811 124.397 190.612 127.026C192.046 131.728 193.302 134.29 195.982 138.41C199.059 143.141 200.714 146.413 205.649 149.151C209.779 151.442 219.546 153.051 217.423 151.916C215.3 150.782 213.613 150.455 212.361 148.399C211.598 147.144 212.083 146.019 211.261 144.801Z" fill="url(#paint26_linear_302_116)"/>
<path d="M192.759 117.359C196.84 116.5 197.143 117.568 200.492 117.359C203.841 117.151 196.851 116.509 194.907 115.211C193.476 114.256 192.828 113.491 191.685 112.204C190.448 110.812 187.604 108.552 187.604 108.552C187.604 108.552 187.516 110.957 187.819 112.204C188.17 113.648 188.018 114.765 189.108 115.856C190.143 116.892 192.759 117.359 192.759 117.359Z" fill="url(#paint27_linear_302_116)"/>
<path d="M198.559 176.646C206.292 178.15 208.655 178.15 212.736 180.512C213.52 182.135 213.782 183.223 213.703 185.023C213.605 187.265 212.243 188.226 211.662 190.394C210.489 194.776 209.514 196.623 210.159 201.993C210.358 203.651 211.921 204.529 213.059 205.752C214.197 206.975 214.643 204.877 214.67 203.926C214.697 202.944 213.545 202.847 213.059 201.993C212.052 200.225 212.167 198.867 212.307 196.838C212.491 194.164 213.819 192.935 214.67 190.394C215.698 187.323 217.574 185.638 217.033 182.446C216.592 179.85 215.584 178.372 213.596 176.646C211.132 174.507 208.909 173.954 205.648 174.068C202.704 174.172 199.203 175.142 198.559 176.646Z" fill="#B26F34"/>
<path d="M166.111 126.596L166.97 125.952C166.97 125.952 167.268 129.356 167.185 131.537C167.101 133.731 167.163 135.016 166.54 137.122C165.72 139.896 164.028 140.907 162.889 143.566C162.189 145.2 161.385 147.862 161.385 147.862C161.385 147.862 160.041 142.193 160.741 140.559C161.88 137.9 163.572 136.888 164.392 134.114C165.015 132.009 164.953 130.724 165.037 128.53C166.111 126.596 166.111 126.596 166.111 126.596Z" fill="#D18643"/>
<path d="M143.784 112.634C143.407 112.979 142.99 112.726 142.495 112.848C139.773 113.521 138.734 115.23 136.91 117.359C135.85 118.596 135.408 119.414 134.547 120.796C132.761 123.662 132.529 125.704 130.68 128.529C129.826 129.835 129.183 130.453 128.318 131.751C127.607 132.817 127.151 133.389 126.599 134.544C126.061 135.669 125.875 136.354 125.525 137.551C124.552 140.877 124.899 142.922 124.451 146.358C124.287 147.617 124.084 148.312 124.021 149.58C123.922 151.598 124.495 152.716 124.451 154.736C124.416 156.338 124.395 157.258 124.021 158.817C123.774 159.849 123.306 160.343 123.162 161.395C122.968 162.817 123.364 163.629 123.592 165.046C123.85 166.654 124.276 167.508 124.451 169.128C124.641 170.879 123.777 172.011 124.451 173.638C125.064 175.119 125.858 175.839 127.243 176.646C128.865 177.59 130.102 177.324 131.969 177.505C133.836 177.686 132.276 168.957 133.043 163.543C134.008 156.732 135.035 152.976 136.91 146.358C138.746 139.875 139.903 136.253 142.495 130.033C145.424 123.003 158.332 115.562 151.302 112.634H143.784Z" fill="#E5A064"/>
<path d="M191.041 230.562C192.691 230.875 195.337 230.777 195.337 230.777C199.61 229.311 192.617 224.27 191.041 220.036C189.615 216.208 188.78 214.068 187.604 210.155C186.655 206.999 186.966 204.923 185.456 201.993C184.249 199.651 182.609 198.949 181.375 196.623C179.208 192.539 179.439 189.626 179.012 185.023C178.648 181.097 179.012 178.87 179.012 174.927C179.012 171.823 179.28 170.072 179.012 166.979C178.784 164.355 179.677 162.298 177.938 160.32C176.548 158.741 175.098 144.802 172.997 144.686C170.586 144.552 169.142 145.401 167.197 146.834C163.783 149.35 159.464 163.757 162.687 170.201C165.909 176.646 165.809 173.824 167.197 176.646C168.272 178.83 167.857 180.526 168.808 182.768C169.795 185.093 171.801 187.524 172.997 189.749C175.06 193.585 174.633 194.518 175.575 198.771C176.055 200.939 176.168 202.187 176.649 204.356L176.682 204.506C177.818 209.622 178.476 212.585 180.515 217.459C182.123 221.301 182.956 223.579 185.456 226.91C186.243 227.958 186.522 228.748 187.604 229.488C188.765 230.282 189.659 230.3 191.041 230.562Z" fill="#E5A064"/>
<path d="M168.221 111.785L168.952 111.334C168.952 111.334 172.805 116.232 174.969 119.581C179.008 125.833 179.969 130.075 183.562 136.593C185.507 140.121 186.778 141.997 188.718 145.528C191.564 150.711 193.903 153.352 195.592 159.018C197.109 164.107 197.311 172.508 197.311 172.508L196.58 172.959C196.58 172.959 196.378 164.559 194.861 159.469C193.172 153.803 190.833 151.162 187.987 145.98C186.047 142.449 184.776 140.573 182.831 137.044C179.238 130.526 178.277 126.284 174.238 120.032C172.074 116.684 168.221 111.785 168.221 111.785Z" fill="url(#paint28_linear_302_116)"/>
<path d="M180.515 97.1678C180.515 97.1678 181.163 97.577 181.589 97.7263C182.449 98.027 182.415 97.8972 182.878 97.8121C183.738 97.5974 184.117 96.8851 185.026 96.5232C185.594 96.2974 185.932 96.2187 186.53 96.0936C187.601 95.8697 188.231 95.9492 189.322 95.8788C191.333 95.7491 192.465 95.7543 194.478 95.664C196.24 95.585 197.228 95.551 198.989 95.4492C201.34 95.3133 202.653 95.169 205.003 95.0196C206.429 94.929 208.655 94.8048 208.655 94.8048C209.046 95.2098 209.13 95.5569 209.299 96.0936C209.978 98.248 208.766 99.8846 207.151 101.464C205.33 103.245 203.452 103.106 200.922 103.397C197.645 103.774 195.826 102.659 192.545 102.323C186.61 101.715 177.293 101.464 177.293 101.464L179.227 99.3157L180.515 97.1678Z" fill="#E49046"/>
<path d="M143.999 112.204C143.999 112.204 157.223 112.933 164.941 109.841C172.371 106.866 180.644 97.1678 180.644 97.1678C180.836 97.3189 180.948 97.3972 181.159 97.5244C181.159 97.5244 172.785 107.38 165.479 110.486C157.559 113.853 143.783 112.634 143.783 112.634C143.936 112.491 143.968 112.394 143.999 112.204Z" fill="url(#paint29_linear_302_116)"/>
<path d="M143.999 112.204C143.999 112.204 157.223 112.933 164.941 109.841C172.371 106.866 180.644 97.1678 180.644 97.1678C180.836 97.3189 180.948 97.3972 181.159 97.5244C181.159 97.5244 172.785 107.38 165.479 110.486C157.559 113.853 143.783 112.634 143.783 112.634C143.936 112.491 143.968 112.394 143.999 112.204Z" fill="url(#paint30_linear_302_116)"/>
<path d="M149.369 125.952H149.799C149.799 125.952 151.674 130.573 151.732 133.685C151.779 136.226 150.658 140.103 150.658 140.103C150.241 140.117 150.411 140.116 150.228 140.116C150.228 140.116 151.383 136.098 151.302 133.47C151.209 130.44 149.369 125.952 149.369 125.952Z" fill="url(#paint31_linear_302_116)"/>
<path d="M116.928 71.4332C117.524 68.6211 118.217 67.0768 119.684 64.5594C121.067 62.1875 122.115 60.9807 124.049 58.9745C126.78 56.1427 128.624 54.7542 132.09 52.7451C135.435 50.8063 137.533 50.0051 141.279 48.8786C145.366 47.6497 147.787 47.1057 152.077 46.9454C155.494 46.8177 157.452 46.9666 160.807 47.5898C162.813 47.9626 163.975 48.1372 165.861 48.8786C167.676 49.5924 168.654 50.1315 170.226 51.2415C174.237 54.0746 175.335 56.9154 177.577 61.1225C178.744 63.3114 179.259 64.6077 180.104 66.9223C180.976 69.3106 181.516 70.6597 181.942 73.1516C182.551 76.7136 182.947 78.9057 181.942 82.3883C181.127 85.2137 180.074 86.6583 178.266 89.0473C176.652 91.1801 175.573 92.2983 173.442 93.9878C170.801 96.081 168.906 96.7441 165.861 98.2839C162.118 100.176 160.032 101.361 155.982 102.58C150.124 104.343 146.366 105.77 140.36 104.513C137.222 103.857 135.504 103.103 132.779 101.506C130.619 100.239 129.555 99.3001 127.725 97.6395C123.848 94.1216 121.865 91.7357 119.684 87.114C117.006 81.436 115.636 77.5205 116.928 71.4332Z" fill="url(#paint32_linear_302_116)"/>
<path d="M120.762 84.3213L131.287 101.506C131.287 101.506 128.12 101.663 126.347 100.861C124.346 99.9572 123.553 98.773 122.265 96.9948C121.011 95.2627 120.436 94.1254 119.903 92.0543C119.212 89.3736 120.762 84.3213 120.762 84.3213Z" fill="#B7B6B2"/>
<path d="M175.575 62.5842C175.575 62.5842 179.947 64.1144 181.123 64.9891C182.123 65.7337 182.58 66.3139 183.271 67.352C184.359 68.9868 184.703 70.135 184.989 72.0777C185.197 73.4885 185.197 74.3186 184.989 75.7294C184.703 77.6721 181.123 83.6351 181.123 83.6351L175.575 62.5842Z" fill="#B7B7C3"/>
<g filter="url(#filter1_f_302_116)">
<path d="M179.834 66.9529L180.788 66.2778C180.788 66.2778 181.723 67.7569 182.22 68.7532C182.898 70.112 183.208 70.9114 183.651 72.3538C183.865 73.0498 184.237 73.4366 184.128 74.1541C184.022 74.8555 183.174 75.7293 183.174 75.7293C183.174 75.7293 182.689 73.5088 182.22 72.1287C181.506 70.03 179.834 66.9529 179.834 66.9529Z" fill="#62635E" fill-opacity="0.5"/>
</g>
<path d="M120.332 74.8701C120.89 72.058 121.538 70.5136 122.91 67.9963C124.203 65.6243 125.183 64.4176 126.991 62.4114C129.545 59.5796 131.269 58.1911 134.51 56.182C137.637 54.2431 139.599 53.4419 143.102 52.3155C146.923 51.0866 149.187 50.5426 153.198 50.3822C156.393 50.2546 158.224 50.4035 161.36 51.0267C163.237 51.3995 164.323 51.5741 166.086 52.3155C167.784 53.0293 168.698 53.5684 170.167 54.6784C173.918 57.5115 174.944 60.3523 177.041 64.5594C178.132 66.7483 178.614 68.0446 179.404 70.3592C180.219 72.7474 180.724 74.0966 181.122 76.5885C181.692 80.1504 182.062 82.3426 181.122 85.8252C180.36 88.6506 179.376 90.0951 177.686 92.4841C176.177 94.617 175.168 95.7352 173.175 97.4247C170.706 99.5179 168.933 100.181 166.086 101.721C162.587 103.613 160.636 104.798 156.849 106.017C151.372 107.78 147.858 109.207 142.243 107.95C139.308 107.293 137.702 106.54 135.154 104.943C133.134 103.676 132.14 102.737 130.428 101.076C126.803 97.5585 124.949 95.1725 122.91 90.5509C120.405 84.8729 119.125 80.9574 120.332 74.8701Z" fill="url(#paint33_linear_302_116)"/>
<path d="M128.495 78.7366C130.428 75.5145 131.19 74.4098 133.436 72.0776C136.008 69.4069 137.78 68.1942 140.954 66.2778C144.039 64.4156 145.945 63.6427 149.332 62.4113C154.057 60.6929 156.42 60.2633 160.287 60.2633C163.019 60.2633 164.85 61.9639 166.516 64.1298C168.664 66.9223 169.15 67.562 170.812 70.7887C172.139 73.3647 173.605 77.6625 173.605 77.6625C173.605 77.6625 174.613 81.3138 173.605 83.2475C171.027 88.188 166.453 92.142 160.287 95.7062C153.852 99.4258 151.909 100.862 142.028 100.432C137.302 99.358 130.078 92.3962 128.495 84.1067C128.163 82.3686 127.585 80.254 128.495 78.7366Z" fill="url(#paint34_linear_302_116)"/>
<path d="M137.732 68.2113C140.843 65.8922 142.972 64.801 146.539 63.2708C150.002 61.785 152.036 60.9407 155.775 60.4783C157.11 60.3133 159.212 60.2635 159.212 60.2635C159.212 60.2635 151.222 68.6281 148.472 75.2999C145.439 82.6598 145.68 95.4917 145.68 95.4917L136.658 96.3509C136.658 96.3509 128.666 82.6336 129.999 77.0184C130.428 75.2086 131.646 73.8223 133.221 72.0778C134.77 70.3623 135.879 69.5925 137.732 68.2113Z" fill="url(#paint35_linear_302_116)"/>
<path fill-rule="evenodd" clip-rule="evenodd" d="M132.779 71.7228C130.449 74.1545 129.659 75.3064 127.654 78.666C126.814 80.0731 127.196 81.9726 127.533 83.6506C127.575 83.8594 127.616 84.0649 127.654 84.2656C129.296 92.909 136.79 100.168 141.692 101.288C151.454 101.715 153.746 100.377 159.709 96.8978L160.632 96.3604C167.028 92.6439 171.773 88.5211 174.446 83.3696C175.493 81.3534 174.446 77.5462 174.446 77.5462C174.446 77.5462 172.926 73.0648 171.55 70.3789C169.826 67.0143 169.322 66.3473 167.094 63.4355C165.366 61.1772 163.466 59.4039 160.632 59.4039C156.621 59.4039 154.17 59.8519 149.268 61.6437C145.755 62.9277 143.778 63.7336 140.578 65.6753C137.285 67.6735 135.448 68.9379 132.779 71.7228ZM133.435 72.0775C131.189 74.4097 130.428 75.5144 128.495 78.7364C127.686 80.0856 128.053 81.9067 128.378 83.5157C128.418 83.7164 128.458 83.9138 128.495 84.1066C130.078 92.3961 137.302 99.3578 142.028 100.432C151.438 100.841 153.649 99.5581 159.397 96.2215C159.684 96.0549 159.98 95.8831 160.286 95.7061C166.452 92.1419 171.026 88.1879 173.604 83.2473C174.613 81.3137 173.604 77.6624 173.604 77.6624C173.604 77.6624 172.138 73.3645 170.812 70.7886C169.15 67.5618 168.664 66.9221 166.515 64.1296C164.849 61.9638 163.019 60.2632 160.286 60.2632C156.42 60.2632 154.057 60.6928 149.331 62.4112C145.945 63.6426 144.038 64.4155 140.954 66.2777C137.779 68.1941 136.008 69.4067 133.435 72.0775Z" fill="url(#paint36_linear_302_116)"/>
<path d="M225.598 180.956C227.405 179.253 229.424 175.787 229.424 175.787C229.424 175.787 228.999 177.131 228.659 177.963C227.874 179.885 227.165 180.781 225.598 182.045C224.037 183.304 221.261 183.949 221.261 183.949C221.261 183.949 224.086 182.381 225.598 180.956Z" fill="#AC7341"/>
<ellipse rx="4.27281" ry="4.26958" transform="matrix(0.777144 -0.629323 0.629318 0.777148 178.758 112.484)" fill="#59C7EA"/>
<path d="M176.144 115.851L176.474 114.36L177.15 114.359L177.512 113.39L178.333 113.245L177.428 112.546L180.596 112.532L178.806 111.899L178.021 110.061L180.04 110.431L180.347 109.844L182.397 110.188L183.048 111.249L183.298 112.427L182.471 114.945L180.867 116.375L178.878 116.944L176.627 116.449L176.144 115.851Z" fill="#DBDBDB"/>
<path fill-rule="evenodd" clip-rule="evenodd" d="M180.663 112.53L178.271 112.551L177.559 112.57L178.415 113.235L177.802 113.523L177.337 114.554L176.572 114.658L176.112 116.006L176.218 113.905L177.034 114.18L177.125 112.212L178.12 112.365L178.085 111.435L177.729 109.647L178.628 109.79L179.815 110.252L179.926 109.538C181.521 109.92 182.345 110.137 182.397 110.188C182.45 110.239 181.784 110.185 180.399 110.027L181.184 111.17L179.645 110.881L178.24 110.278L178.617 111.222L180.042 111.535L178.909 111.93L180.663 112.53Z" fill="white"/>
<path fill-rule="evenodd" clip-rule="evenodd" d="M176.986 112.124C176.986 112.124 176.4 112.238 176.149 112.486C175.898 112.734 175.762 112.845 175.762 112.845C175.762 112.845 176.087 113.079 176.383 113.109C176.678 113.101 176.652 113.163 176.652 113.163C175.908 116.655 178.408 118.261 181.43 115.815C181.43 115.815 180.252 115.519 179.723 115.217C179.059 114.818 179.307 114.054 179.307 114.054C179.307 114.054 179.733 113.684 180.601 113.763C181.016 113.8 181.356 113.571 181.38 113.533C181.44 113.439 181.318 113.177 181.318 113.177C181.318 113.177 181.471 113.143 181.524 112.874C181.578 112.605 181.422 112.19 181.422 112.19C181.422 112.19 180.7 112.097 180.431 112.044C180.162 111.991 179.753 111.899 179.5 111.698C179.247 111.497 178.414 111.253 178.414 111.253C176.366 110.334 175.278 111.371 174.933 112.422C174.783 112.94 174.825 113.709 175.825 114.049C175.254 113.436 175.23 113.052 175.276 112.814C175.434 112.012 176.311 111.498 176.986 112.124Z" fill="#BC0624"/>
<g filter="url(#filter2_i_302_116)">
<path d="M174.934 112.421C175.238 111.37 176.308 110.589 177.676 110.991C177.676 110.991 177.171 111.25 177.044 111.555C176.958 111.761 176.986 112.123 176.986 112.123C176.312 111.497 175.434 112.011 175.277 112.813C175.23 113.052 175.255 113.435 175.826 114.048C174.825 113.708 174.784 112.939 174.934 112.421Z" fill="#7B5C46"/>
<path d="M174.934 112.421C175.238 111.37 176.308 110.589 177.676 110.991C177.676 110.991 177.171 111.25 177.044 111.555C176.958 111.761 176.986 112.123 176.986 112.123C176.312 111.497 175.434 112.011 175.277 112.813C175.23 113.052 175.255 113.435 175.826 114.048C174.825 113.708 174.784 112.939 174.934 112.421Z" fill="url(#paint37_linear_302_116)"/>
</g>
<path d="M181.187 112.425C181.169 112.403 181.165 112.373 181.177 112.348L181.221 112.251C181.229 112.234 181.24 112.219 181.255 112.207V112.207C181.281 112.186 181.314 112.176 181.347 112.18L181.422 112.19L181.449 112.232C181.456 112.243 181.462 112.255 181.466 112.268V112.268C181.495 112.361 181.424 112.455 181.327 112.454L181.244 112.453C181.222 112.453 181.201 112.442 181.187 112.425V112.425Z" fill="#1C1C21"/>
<mask id="mask0_302_116" style="mask-type:alpha" maskUnits="userSpaceOnUse" x="174" y="110" width="4" height="5">
<path d="M174.933 112.422C175.237 111.37 176.307 110.59 177.675 110.992L176.986 112.124C176.311 111.498 175.433 112.011 175.276 112.814C175.229 113.052 175.254 113.436 175.825 114.049C174.825 113.709 174.783 112.94 174.933 112.422Z" fill="#7B5C46"/>
<path d="M174.933 112.422C175.237 111.37 176.307 110.59 177.675 110.992L176.986 112.124C176.311 111.498 175.433 112.011 175.276 112.814C175.229 113.052 175.254 113.436 175.825 114.049C174.825 113.709 174.783 112.94 174.933 112.422Z" fill="url(#paint38_linear_302_116)"/>
</mask>
<g mask="url(#mask0_302_116)">
<path d="M177.115 110.872C176.783 111.386 176.667 111.638 176.756 111.956" stroke="#372620" stroke-width="0.1" stroke-miterlimit="2.6131"/>
<path d="M177.115 110.872C176.783 111.386 176.667 111.638 176.756 111.956" stroke="url(#paint39_linear_302_116)" stroke-width="0.1" stroke-miterlimit="2.6131"/>
<path d="M176.476 110.921C176.402 111.271 176.306 111.513 176.443 111.858" stroke="#372620" stroke-width="0.1" stroke-miterlimit="2.6131"/>
<path d="M176.476 110.921C176.402 111.271 176.306 111.513 176.443 111.858" stroke="url(#paint40_linear_302_116)" stroke-width="0.1" stroke-miterlimit="2.6131"/>
<path d="M175.808 111.214C175.852 111.509 175.916 111.651 176.112 111.885" stroke="#372620" stroke-width="0.1" stroke-miterlimit="2.6131"/>
<path d="M175.808 111.214C175.852 111.509 175.916 111.651 176.112 111.885" stroke="url(#paint41_linear_302_116)" stroke-width="0.1" stroke-miterlimit="2.6131"/>
<path d="M175.4 111.543C175.539 111.788 175.61 111.865 175.825 112.028" stroke="#372620" stroke-width="0.1" stroke-miterlimit="2.6131"/>
<path d="M175.4 111.543C175.539 111.788 175.61 111.865 175.825 112.028" stroke="url(#paint42_linear_302_116)" stroke-width="0.1" stroke-miterlimit="2.6131"/>
<path d="M175.164 111.845C175.275 112.057 175.37 112.145 175.581 112.251" stroke="#372620" stroke-width="0.1" stroke-miterlimit="2.6131"/>
<path d="M175.164 111.845C175.275 112.057 175.37 112.145 175.581 112.251" stroke="url(#paint43_linear_302_116)" stroke-width="0.1" stroke-miterlimit="2.6131"/>
<path d="M174.953 112.245C174.916 112.319 175.421 112.644 175.38 112.534" stroke="#372620" stroke-width="0.1" stroke-miterlimit="2.6131"/>
<path d="M174.953 112.245C174.916 112.319 175.421 112.644 175.38 112.534" stroke="url(#paint44_linear_302_116)" stroke-width="0.1" stroke-miterlimit="2.6131"/>
<path d="M174.84 112.703C175.002 112.811 175.102 112.85 175.291 112.868" stroke="#372620" stroke-width="0.1" stroke-miterlimit="2.6131"/>
<path d="M174.84 112.703C175.002 112.811 175.102 112.85 175.291 112.868" stroke="url(#paint45_linear_302_116)" stroke-width="0.1" stroke-miterlimit="2.6131"/>
</g>
<path d="M181.43 115.815C178.347 116.436 177.837 114.124 177.967 112.891C177.913 113.403 178.297 113.856 178.511 114.013C178.699 114.194 179.106 114.152 179.293 114.105C179.184 114.587 179.446 114.974 179.605 115.106C179.823 115.287 181.43 115.815 181.43 115.815Z" fill="#8F0018"/>
<g filter="url(#filter3_i_302_116)">
<path fill-rule="evenodd" clip-rule="evenodd" d="M179.301 112.258C179.301 112.258 179.089 112.163 178.996 112.222C178.903 112.28 178.905 112.346 178.838 112.402C178.77 112.457 178.719 112.464 178.719 112.464C178.719 112.464 178.887 112.546 179.027 112.49C179.168 112.435 179.274 112.337 179.274 112.337L179.301 112.258Z" fill="#A4001B"/>
</g>
<g filter="url(#filter4_i_302_116)">
<path fill-rule="evenodd" clip-rule="evenodd" d="M180.548 113.321C180.548 113.321 180.572 113.255 180.841 113.21C181.11 113.165 181.317 113.177 181.317 113.177" fill="#AD0420"/>
</g>
<path d="M176.652 113.164C176.823 113.217 176.947 113.199 177.084 113.153C176.92 113.265 176.77 113.312 176.63 113.271C176.636 113.241 176.645 113.194 176.652 113.164Z" fill="url(#paint46_linear_302_116)" fill-opacity="0.3"/>
<g filter="url(#filter5_i_302_116)">
<path d="M175.977 112.974C175.977 112.974 176.027 112.997 176.19 112.816C176.353 112.635 176.496 112.503 176.75 112.488C176.778 112.487 177.206 112.594 177.219 112.233C177.255 112.269 177.125 112.688 177.297 112.965C177.027 113.339 176.652 113.164 176.652 113.164C176.652 113.164 176.607 113.116 176.383 113.11C176.16 113.105 175.977 112.974 175.977 112.974Z" fill="#AD0420"/>
</g>
<g filter="url(#filter6_i_302_116)">
<path d="M178.956 112.336C179.039 112.21 179.184 112.27 179.184 112.27C179.143 112.25 179.011 112.321 179.036 112.381C179.054 112.424 179.171 112.336 179.178 112.327C179.174 112.335 179.057 112.452 178.996 112.464C178.934 112.475 178.819 112.462 178.819 112.462C178.874 112.457 178.942 112.358 178.956 112.336Z" fill="#810016"/>
</g>
<path fill-rule="evenodd" clip-rule="evenodd" d="M181.7 116.117C183.708 114.491 184.019 111.547 182.394 109.54C180.769 107.534 177.825 107.226 175.817 108.852C173.809 110.477 173.499 113.422 175.123 115.428C176.748 117.434 179.692 117.743 181.7 116.117ZM181.446 115.802C183.279 114.317 183.563 111.628 182.079 109.795C180.595 107.963 177.906 107.681 176.072 109.166C174.238 110.651 173.954 113.341 175.438 115.173C176.922 117.006 179.612 117.287 181.446 115.802Z" fill="#BC0624"/>
<path fill-rule="evenodd" clip-rule="evenodd" d="M181.7 116.117C183.708 114.491 184.019 111.547 182.394 109.54C180.769 107.534 177.825 107.226 175.817 108.852C173.809 110.477 173.499 113.422 175.123 115.428C176.748 117.434 179.692 117.743 181.7 116.117ZM181.446 115.802C183.279 114.317 183.563 111.628 182.079 109.795C180.595 107.963 177.906 107.681 176.072 109.166C174.238 110.651 173.954 113.341 175.438 115.173C176.922 117.006 179.612 117.287 181.446 115.802Z" fill="url(#paint47_linear_302_116)"/>
<g filter="url(#filter7_d_302_116)">
<path d="M338.744 324.133V291.315H267.714L260.745 273.557L311.771 157.345H351.332L306.825 258.272H338.744V229.95L346.162 209.495H377.631V258.272H392.691V285.246L377.631 291.315V324.133H338.744Z" fill="#3E404E"/>
</g>
<defs>
<filter id="filter0_d_302_116" x="94.9465" y="156.792" width="187.827" height="180.56" filterUnits="userSpaceOnUse" color-interpolation-filters="sRGB">
<feFlood flood-opacity="0" result="BackgroundImageFix"/>
<feColorMatrix in="SourceAlpha" type="matrix" values="0 0 0 0 0 0 0 0 0 0 0 0 0 0 0 0 0 0 127 0" result="hardAlpha"/>
<feOffset dx="-7"/>
<feGaussianBlur stdDeviation="2"/>
<feColorMatrix type="matrix" values="0 0 0 0 0 0 0 0 0 0 0 0 0 0 0 0 0 0 0.4 0"/>
<feBlend mode="normal" in2="BackgroundImageFix" result="effect1_dropShadow_302_116"/>
<feBlend mode="normal" in="SourceGraphic" in2="effect1_dropShadow_302_116" result="shape"/>
</filter>
<filter id="filter1_f_302_116" x="175.834" y="62.2778" width="12.3136" height="17.4514" filterUnits="userSpaceOnUse" color-interpolation-filters="sRGB">
<feFlood flood-opacity="0" result="BackgroundImageFix"/>
<feBlend mode="normal" in="SourceGraphic" in2="BackgroundImageFix" result="shape"/>
<feGaussianBlur stdDeviation="2" result="effect1_foregroundBlur_302_116"/>
</filter>
<filter id="filter2_i_302_116" x="174.869" y="110.883" width="2.80688" height="7.16455" filterUnits="userSpaceOnUse" color-interpolation-filters="sRGB">
<feFlood flood-opacity="0" result="BackgroundImageFix"/>
<feBlend mode="normal" in="SourceGraphic" in2="BackgroundImageFix" result="shape"/>
<feColorMatrix in="SourceAlpha" type="matrix" values="0 0 0 0 0 0 0 0 0 0 0 0 0 0 0 0 0 0 127 0" result="hardAlpha"/>
<feOffset dy="4"/>
<feGaussianBlur stdDeviation="2"/>
<feComposite in2="hardAlpha" operator="arithmetic" k2="-1" k3="1"/>
<feColorMatrix type="matrix" values="0 0 0 0 0 0 0 0 0 0 0 0 0 0 0 0 0 0 0.35 0"/>
<feBlend mode="normal" in2="shape" result="effect1_innerShadow_302_116"/>
</filter>
<filter id="filter3_i_302_116" x="178.719" y="112.202" width="0.581299" height="0.807251" filterUnits="userSpaceOnUse" color-interpolation-filters="sRGB">
<feFlood flood-opacity="0" result="BackgroundImageFix"/>
<feBlend mode="normal" in="SourceGraphic" in2="BackgroundImageFix" result="shape"/>
<feColorMatrix in="SourceAlpha" type="matrix" values="0 0 0 0 0 0 0 0 0 0 0 0 0 0 0 0 0 0 127 0" result="hardAlpha"/>
<feOffset dy="0.5"/>
<feGaussianBlur stdDeviation="0.25"/>
<feComposite in2="hardAlpha" operator="arithmetic" k2="-1" k3="1"/>
<feColorMatrix type="matrix" values="0 0 0 0 0 0 0 0 0 0 0 0 0 0 0 0 0 0 0.05 0"/>
<feBlend mode="normal" in2="shape" result="effect1_innerShadow_302_116"/>
</filter>
<filter id="filter4_i_302_116" x="180.548" y="113.176" width="0.769165" height="0.245142" filterUnits="userSpaceOnUse" color-interpolation-filters="sRGB">
<feFlood flood-opacity="0" result="BackgroundImageFix"/>
<feBlend mode="normal" in="SourceGraphic" in2="BackgroundImageFix" result="shape"/>
<feColorMatrix in="SourceAlpha" type="matrix" values="0 0 0 0 0 0 0 0 0 0 0 0 0 0 0 0 0 0 127 0" result="hardAlpha"/>
<feOffset dy="0.1"/>
<feGaussianBlur stdDeviation="0.05"/>
<feComposite in2="hardAlpha" operator="arithmetic" k2="-1" k3="1"/>
<feColorMatrix type="matrix" values="0 0 0 0 0 0 0 0 0 0 0 0 0 0 0 0 0 0 0.25 0"/>
<feBlend mode="normal" in2="shape" result="effect1_innerShadow_302_116"/>
</filter>
<filter id="filter5_i_302_116" x="175.977" y="112.233" width="1.31995" height="1.47131" filterUnits="userSpaceOnUse" color-interpolation-filters="sRGB">
<feFlood flood-opacity="0" result="BackgroundImageFix"/>
<feBlend mode="normal" in="SourceGraphic" in2="BackgroundImageFix" result="shape"/>
<feColorMatrix in="SourceAlpha" type="matrix" values="0 0 0 0 0 0 0 0 0 0 0 0 0 0 0 0 0 0 127 0" result="hardAlpha"/>
<feOffset dy="0.5"/>
<feGaussianBlur stdDeviation="0.75"/>
<feComposite in2="hardAlpha" operator="arithmetic" k2="-1" k3="1"/>
<feColorMatrix type="matrix" values="0 0 0 0 0 0 0 0 0 0 0 0 0 0 0 0 0 0 0.04 0"/>
<feBlend mode="normal" in2="shape" result="effect1_innerShadow_302_116"/>
</filter>
<filter id="filter6_i_302_116" x="178.819" y="112.256" width="0.36499" height="0.312402" filterUnits="userSpaceOnUse" color-interpolation-filters="sRGB">
<feFlood flood-opacity="0" result="BackgroundImageFix"/>
<feBlend mode="normal" in="SourceGraphic" in2="BackgroundImageFix" result="shape"/>
<feColorMatrix in="SourceAlpha" type="matrix" values="0 0 0 0 0 0 0 0 0 0 0 0 0 0 0 0 0 0 127 0" result="hardAlpha"/>
<feOffset dy="0.1"/>
<feGaussianBlur stdDeviation="0.05"/>
<feComposite in2="hardAlpha" operator="arithmetic" k2="-1" k3="1"/>
<feColorMatrix type="matrix" values="0 0 0 0 0 0 0 0 0 0 0 0 0 0 0 0 0 0 0.25 0"/>
<feBlend mode="normal" in2="shape" result="effect1_innerShadow_302_116"/>
</filter>
<filter id="filter7_d_302_116" x="249.745" y="153.345" width="142.946" height="174.787" filterUnits="userSpaceOnUse" color-interpolation-filters="sRGB">
<feFlood flood-opacity="0" result="BackgroundImageFix"/>
<feColorMatrix in="SourceAlpha" type="matrix" values="0 0 0 0 0 0 0 0 0 0 0 0 0 0 0 0 0 0 127 0" result="hardAlpha"/>
<feOffset dx="-7"/>
<feGaussianBlur stdDeviation="2"/>
<feColorMatrix type="matrix" values="0 0 0 0 0 0 0 0 0 0 0 0 0 0 0 0 0 0 0.4 0"/>
<feBlend mode="normal" in2="BackgroundImageFix" result="effect1_dropShadow_302_116"/>
<feBlend mode="normal" in="SourceGraphic" in2="effect1_dropShadow_302_116" result="shape"/>
</filter>
<linearGradient id="paint0_linear_302_116" x1="292" y1="103.486" x2="325.183" y2="72.5525" gradientUnits="userSpaceOnUse">
<stop stop-color="#F67C01"/>
<stop offset="1" stop-color="#BB5E00"/>
</linearGradient>
<linearGradient id="paint1_linear_302_116" x1="347.382" y1="22.852" x2="379.268" y2="56.4559" gradientUnits="userSpaceOnUse">
<stop offset="0.213542" stop-color="#D2CECE"/>
<stop offset="1" stop-color="#393535"/>
</linearGradient>
<linearGradient id="paint2_linear_302_116" x1="347.382" y1="22.852" x2="379.268" y2="56.4559" gradientUnits="userSpaceOnUse">
<stop offset="0.213542" stop-color="#D2CECE"/>
<stop offset="1" stop-color="#393535"/>
</linearGradient>
<linearGradient id="paint3_linear_302_116" x1="335.699" y1="77.8406" x2="350.978" y2="93.9425" gradientUnits="userSpaceOnUse">
<stop stop-color="#404040"/>
<stop offset="1"/>
</linearGradient>
<linearGradient id="paint4_linear_302_116" x1="321.749" y1="63.139" x2="305.142" y2="45.6369" gradientUnits="userSpaceOnUse">
<stop/>
<stop offset="1" stop-color="#7A7A7A"/>
</linearGradient>
<linearGradient id="paint5_linear_302_116" x1="382.099" y1="0.553052" x2="402.692" y2="22.2556" gradientUnits="userSpaceOnUse">
<stop stop-color="#8C8B8B"/>
<stop offset="1"/>
</linearGradient>
<linearGradient id="paint6_linear_302_116" x1="310.906" y1="60.1239" x2="338.806" y2="89.5273" gradientUnits="userSpaceOnUse">
<stop offset="0.1875" stop-color="white"/>
<stop offset="1" stop-color="#393535"/>
</linearGradient>
<linearGradient id="paint7_linear_302_116" x1="375.978" y1="-0.290321" x2="403.878" y2="29.1131" gradientUnits="userSpaceOnUse">
<stop offset="0.135417" stop-color="white"/>
<stop offset="1" stop-color="#393535"/>
</linearGradient>
<linearGradient id="paint8_linear_302_116" x1="376.447" y1="33.8546" x2="367.811" y2="24.7536" gradientUnits="userSpaceOnUse">
<stop offset="0.0885417" stop-color="#212121"/>
<stop offset="1" stop-color="#606060"/>
</linearGradient>
<linearGradient id="paint9_linear_302_116" x1="161.926" y1="168.044" x2="231.062" y2="326.101" gradientUnits="userSpaceOnUse">
<stop stop-color="#22C1C3"/>
<stop offset="1" stop-color="#280001"/>
</linearGradient>
<linearGradient id="paint10_linear_302_116" x1="144.681" y1="215.014" x2="155.32" y2="239.33" gradientUnits="userSpaceOnUse">
<stop stop-color="#1F0406"/>
<stop offset="1" stop-color="#247173"/>
</linearGradient>
<linearGradient id="paint11_linear_302_116" x1="236.385" y1="185.346" x2="240.976" y2="193.306" gradientUnits="userSpaceOnUse">
<stop stop-color="#190306"/>
<stop offset="1" stop-color="#E0131F"/>
</linearGradient>
<linearGradient id="paint12_linear_302_116" x1="266.637" y1="253.634" x2="276.145" y2="256.945" gradientUnits="userSpaceOnUse">
<stop stop-color="#2E0508"/>
<stop offset="1" stop-color="#7D060D"/>
</linearGradient>
<linearGradient id="paint13_linear_302_116" x1="186.748" y1="162.043" x2="187.362" y2="167.405" gradientUnits="userSpaceOnUse">
<stop stop-color="#420609"/>
<stop offset="1" stop-color="#DF131E"/>
</linearGradient>
<linearGradient id="paint14_linear_302_116" x1="202.263" y1="283.138" x2="208.975" y2="318.086" gradientUnits="userSpaceOnUse">
<stop stop-color="#150305"/>
<stop offset="1" stop-color="#264749"/>
</linearGradient>
<linearGradient id="paint15_linear_302_116" x1="116.824" y1="290.207" x2="108.53" y2="258.689" gradientUnits="userSpaceOnUse">
<stop stop-color="#6F060A"/>
<stop offset="1" stop-color="#8C080E"/>
</linearGradient>
<linearGradient id="paint16_linear_302_116" x1="119.713" y1="289.327" x2="110.909" y2="257.931" gradientUnits="userSpaceOnUse">
<stop stop-color="#6F060A"/>
<stop offset="0.418146" stop-color="#25595B"/>
<stop offset="0.882741" stop-color="#25595B"/>
</linearGradient>
<linearGradient id="paint17_linear_302_116" x1="213.035" y1="330.292" x2="179.944" y2="331.973" gradientUnits="userSpaceOnUse">
<stop stop-color="#2A0001"/>
<stop offset="1" stop-color="#360103"/>
</linearGradient>
<linearGradient id="paint18_linear_302_116" x1="213.176" y1="328.305" x2="179.966" y2="328.298" gradientUnits="userSpaceOnUse">
<stop stop-color="#2A0001"/>
<stop offset="1" stop-color="#360103"/>
</linearGradient>
<linearGradient id="paint19_linear_302_116" x1="269.436" y1="295.182" x2="281.047" y2="270.3" gradientUnits="userSpaceOnUse">
<stop stop-color="#380103"/>
<stop offset="1" stop-color="#470205"/>
</linearGradient>
<linearGradient id="paint20_linear_302_116" x1="267.012" y1="294.08" x2="278.526" y2="269.152" gradientUnits="userSpaceOnUse">
<stop stop-color="#380103"/>
<stop offset="1" stop-color="#470205"/>
</linearGradient>
<linearGradient id="paint21_linear_302_116" x1="259.482" y1="184.043" x2="271.094" y2="198.972" gradientUnits="userSpaceOnUse">
<stop stop-color="#92090E"/>
<stop offset="1" stop-color="#82070C"/>
</linearGradient>
<linearGradient id="paint22_linear_302_116" x1="258.157" y1="184.947" x2="269.386" y2="200.197" gradientUnits="userSpaceOnUse">
<stop stop-color="#92090E"/>
<stop offset="1" stop-color="#82070C"/>
</linearGradient>
<linearGradient id="paint23_linear_302_116" x1="171.923" y1="94.59" x2="142.924" y2="110.486" gradientUnits="userSpaceOnUse">
<stop stop-color="#778186"/>
<stop offset="1" stop-color="#474B4C"/>
</linearGradient>
<linearGradient id="paint24_linear_302_116" x1="172.353" y1="95.8788" x2="144.428" y2="110.915" gradientUnits="userSpaceOnUse">
<stop stop-color="#C1C1C1"/>
<stop offset="1" stop-color="#929292"/>
</linearGradient>
<linearGradient id="paint25_linear_302_116" x1="201.351" y1="94.8048" x2="175.145" y2="235.073" gradientUnits="userSpaceOnUse">
<stop stop-color="#D4853F"/>
<stop offset="1" stop-color="#D79962"/>
</linearGradient>
<linearGradient id="paint26_linear_302_116" x1="201.352" y1="94.8048" x2="175.145" y2="235.073" gradientUnits="userSpaceOnUse">
<stop stop-color="#A25D21"/>
<stop offset="1" stop-color="#D79962"/>
</linearGradient>
<linearGradient id="paint27_linear_302_116" x1="201.352" y1="94.8048" x2="175.145" y2="235.073" gradientUnits="userSpaceOnUse">
<stop stop-color="#995316"/>
<stop offset="1" stop-color="#D79962"/>
</linearGradient>
<linearGradient id="paint28_linear_302_116" x1="180.3" y1="136.907" x2="184.167" y2="134.974" gradientUnits="userSpaceOnUse">
<stop stop-color="#6A4222"/>
<stop offset="1" stop-color="#D58947"/>
</linearGradient>
<linearGradient id="paint29_linear_302_116" x1="158.82" y1="108.338" x2="160.109" y2="112.419" gradientUnits="userSpaceOnUse">
<stop stop-color="#D48845"/>
<stop offset="1" stop-color="#4E3219"/>
</linearGradient>
<linearGradient id="paint30_linear_302_116" x1="177.938" y1="99.1011" x2="180.73" y2="98.8863" gradientUnits="userSpaceOnUse">
<stop stop-color="#D48641" stop-opacity="0"/>
<stop offset="1" stop-color="#4E3219"/>
</linearGradient>
<linearGradient id="paint31_linear_302_116" x1="149.584" y1="126.596" x2="151.019" y2="140.159" gradientUnits="userSpaceOnUse">
<stop stop-color="#D58A49"/>
<stop offset="1" stop-color="#281709"/>
</linearGradient>
<linearGradient id="paint32_linear_302_116" x1="119.014" y1="67.9543" x2="169.923" y2="76.1169" gradientUnits="userSpaceOnUse">
<stop stop-color="#9F9F9F"/>
<stop offset="1" stop-color="#787877"/>
</linearGradient>
<linearGradient id="paint33_linear_302_116" x1="119.873" y1="75.6873" x2="159.182" y2="76.7613" gradientUnits="userSpaceOnUse">
<stop stop-color="#CBCBCB"/>
<stop offset="1" stop-color="#828380"/>
</linearGradient>
<linearGradient id="paint34_linear_302_116" x1="129.354" y1="80.8847" x2="173.175" y2="81.9587" gradientUnits="userSpaceOnUse">
<stop stop-color="#1B0A5D"/>
<stop offset="0.390625" stop-color="#1B0A5D"/>
<stop offset="0.970597" stop-color="#010005"/>
</linearGradient>
<linearGradient id="paint35_linear_302_116" x1="159.427" y1="62.6264" x2="136.228" y2="79.3812" gradientUnits="userSpaceOnUse">
<stop stop-color="#FFF9FF" stop-opacity="0.36"/>
<stop offset="1" stop-color="#1B0A5D" stop-opacity="0"/>
</linearGradient>
<linearGradient id="paint36_linear_302_116" x1="127.176" y1="80.4129" x2="174.863" y2="80.4129" gradientUnits="userSpaceOnUse">
<stop stop-color="#5B5C59"/>
<stop offset="1" stop-color="#3F403E"/>
</linearGradient>
<linearGradient id="paint37_linear_302_116" x1="175.636" y1="111.348" x2="176.518" y2="112.45" gradientUnits="userSpaceOnUse">
<stop stop-color="#A58C7A"/>
<stop offset="1" stop-color="#7B5C46" stop-opacity="0"/>
</linearGradient>
<linearGradient id="paint38_linear_302_116" x1="175.635" y1="111.349" x2="176.517" y2="112.451" gradientUnits="userSpaceOnUse">
<stop stop-color="#A58C7A"/>
<stop offset="1" stop-color="#7B5C46" stop-opacity="0"/>
</linearGradient>
<linearGradient id="paint39_linear_302_116" x1="176.714" y1="111.175" x2="177.113" y2="111.668" gradientUnits="userSpaceOnUse">
<stop stop-color="#95614F"/>
<stop offset="1" stop-color="#372620" stop-opacity="0"/>
</linearGradient>
<linearGradient id="paint40_linear_302_116" x1="176.163" y1="111.12" x2="176.635" y2="111.703" gradientUnits="userSpaceOnUse">
<stop stop-color="#95614F"/>
<stop offset="1" stop-color="#372620" stop-opacity="0"/>
</linearGradient>
<linearGradient id="paint41_linear_302_116" x1="175.736" y1="111.273" x2="176.184" y2="111.827" gradientUnits="userSpaceOnUse">
<stop stop-color="#95614F"/>
<stop offset="1" stop-color="#372620" stop-opacity="0"/>
</linearGradient>
<linearGradient id="paint42_linear_302_116" x1="175.409" y1="111.535" x2="175.815" y2="112.036" gradientUnits="userSpaceOnUse">
<stop stop-color="#95614F"/>
<stop offset="1" stop-color="#372620" stop-opacity="0"/>
</linearGradient>
<linearGradient id="paint43_linear_302_116" x1="175.191" y1="111.824" x2="175.554" y2="112.273" gradientUnits="userSpaceOnUse">
<stop stop-color="#95614F"/>
<stop offset="1" stop-color="#372620" stop-opacity="0"/>
</linearGradient>
<linearGradient id="paint44_linear_302_116" x1="175.013" y1="112.197" x2="175.328" y2="112.586" gradientUnits="userSpaceOnUse">
<stop stop-color="#95614F"/>
<stop offset="1" stop-color="#372620" stop-opacity="0"/>
</linearGradient>
<linearGradient id="paint45_linear_302_116" x1="174.936" y1="112.625" x2="175.195" y2="112.946" gradientUnits="userSpaceOnUse">
<stop stop-color="#95614F"/>
<stop offset="1" stop-color="#372620" stop-opacity="0"/>
</linearGradient>
<linearGradient id="paint46_linear_302_116" x1="176.808" y1="113.101" x2="176.841" y2="113.334" gradientUnits="userSpaceOnUse">
<stop/>
<stop offset="1" stop-color="#BC0624"/>
</linearGradient>
<linearGradient id="paint47_linear_302_116" x1="178.714" y1="107.674" x2="179.58" y2="115.957" gradientUnits="userSpaceOnUse">
<stop offset="0.0001" stop-color="#F44336"/>
<stop offset="1" stop-color="#BC0624" stop-opacity="0"/>
</linearGradient>
</defs>
</svg>
