<svg width="512" height="512" viewBox="0 0 512 512" fill="none" xmlns="http://www.w3.org/2000/svg"><path d="M0 51.2C0 22.923 22.923 0 51.2 0h409.6C489.077 0 512 22.923 512 51.2v409.6c0 28.277-22.923 51.2-51.2 51.2H51.2C22.923 512 0 489.077 0 460.8z" fill="url(#a)"/><path d="M196.949 421.683q-35.942 0-63.59-14.745-27.187-15.207-42.855-44.237-15.206-29.03-15.206-71.885v-73.728q0-64.051 34.099-97.229 34.1-33.638 91.699-33.638 57.14 0 87.092 31.334 29.952 31.335 29.952 83.866v2.304h-38.247v-3.226q0-23.04-8.294-41.011t-25.805-28.109q-17.51-10.598-44.698-10.598-41.01 0-64.051 25.344-23.04 24.883-23.04 70.041v75.572q0 45.158 23.04 70.502 23.04 24.883 64.512 24.883 40.55 0 59.443-23.04 19.354-23.04 19.354-61.286v-7.834h-97.69v-33.177H318.14v153.446h-35.021v-35.021h-6.451q-5.07 10.138-14.285 19.815-9.216 9.676-24.883 15.667t-40.551 5.99m191.765-6.451V92.672h38.707v322.56z" fill="#fff"/><defs><linearGradient id="a" x1="601.856" y1="-78.08" x2="-46.08" y2="537.344" gradientUnits="userSpaceOnUse"><stop stop-color="#dee3e7" stop-opacity=".92"/><stop offset=".453"/><stop offset=".682" stop-opacity=".87"/><stop offset="1" stop-color="#d9d9d9"/></linearGradient></defs></svg>
