<?xml version="1.0" standalone="no"?>
<!DOCTYPE svg PUBLIC "-//W3C//DTD SVG 20010904//EN"
 "http://www.w3.org/TR/2001/REC-SVG-20010904/DTD/svg10.dtd">
<svg version="1.0" xmlns="http://www.w3.org/2000/svg"
 width="2000.000000pt" height="2000.000000pt" viewBox="0 0 2000.000000 2000.000000"
 preserveAspectRatio="xMidYMid meet">
<metadata>
Created by potrace 1.14, written by Peter Selinger 2001-2017
</metadata>
<g transform="translate(0.000000,2000.000000) scale(0.100000,-0.100000)"
fill="#000000" stroke="none">
<path d="M1035 16839 c-242 -35 -455 -188 -561 -403 -24 -50 -51 -122 -59
-161 -22 -106 -22 -12444 0 -12550 22 -106 92 -239 171 -324 106 -114 226
-186 379 -227 68 -19 299 -19 9035 -19 8736 0 8967 0 9035 19 153 41 273 113
379 227 79 85 149 218 171 324 22 106 22 12444 0 12550 -22 106 -92 239 -171
324 -104 112 -220 183 -374 227 -63 19 -287 19 -9005 20 -5064 1 -8966 -2
-9000 -7z m17530 -382 c253 -74 437 -257 502 -497 17 -62 18 -364 18 -5960 0
-5596 -1 -5898 -18 -5960 -65 -243 -256 -430 -507 -497 -62 -17 -491 -18
-8560 -18 -8069 0 -8498 1 -8560 18 -248 67 -436 248 -507 492 -17 57 -18 354
-21 5910 -2 4155 0 5874 8 5933 21 158 80 280 191 391 104 103 232 171 374
196 56 11 1708 13 8545 12 8058 -2 8478 -3 8535 -20z"/>
<path d="M6845 15129 c-875 -69 -1719 -364 -2463 -861 -460 -308 -866 -689
-1209 -1138 -755 -988 -1112 -2103 -1062 -3312 31 -726 223 -1462 560 -2138
245 -492 516 -873 904 -1269 421 -430 844 -736 1390 -1006 623 -308 1267 -486
1930 -535 90 -6 1079 -10 2773 -10 l2632 0 0 2595 0 2595 -415 0 -415 0 0
-2215 0 -2215 -2120 0 -2120 0 0 4385 0 4385 2535 0 2535 0 0 375 0 375 -2672
-1 c-1470 -1 -2722 -6 -2783 -10z"/>
<path d="M13572 13993 l3 -1148 2158 -3 2157 -2 0 1150 0 1150 -2160 0 -2160
0 2 -1147z"/>
<path d="M13560 11913 c1 -164 11 -829 24 -1478 l23 -1180 -18 -1800 c-9 -990
-19 -1979 -22 -2197 l-5 -398 2178 0 2178 0 -5 378 c-3 207 -13 1112 -22 2011
l-17 1634 22 1496 c13 823 23 1571 23 1664 l1 167 -2180 0 -2180 0 0 -297z"/>
</g>
</svg>
