<?xml version="1.0" standalone="no"?>
<!DOCTYPE svg PUBLIC "-//W3C//DTD SVG 20010904//EN"
 "http://www.w3.org/TR/2001/REC-SVG-20010904/DTD/svg10.dtd">
<svg version="1.0" xmlns="http://www.w3.org/2000/svg"
 width="884.000000pt" height="884.000000pt" viewBox="0 0 884.000000 884.000000"
 preserveAspectRatio="xMidYMid meet">
<metadata>
Created by potrace 1.14, written by Peter Selinger 2001-2017
</metadata>
<g transform="translate(0.000000,884.000000) scale(0.100000,-0.100000)"
fill="#000000" stroke="none">
<path d="M3239 8135 c-2 -1 -44 -6 -94 -10 -49 -3 -101 -8 -115 -10 -14 -2
-38 -6 -55 -9 -16 -3 -61 -10 -100 -16 -139 -22 -411 -91 -490 -124 -22 -9
-40 -16 -40 -15 0 3 -47 -11 -70 -21 -11 -4 -63 -25 -115 -46 -197 -78 -453
-216 -635 -342 -75 -52 -194 -140 -205 -152 -3 -3 -18 -16 -35 -29 -88 -67
-263 -235 -372 -356 -373 -416 -644 -925 -772 -1455 -17 -69 -33 -137 -35
-153 -3 -15 -7 -35 -10 -45 -2 -9 -7 -39 -11 -66 -3 -27 -8 -52 -10 -55 -1 -3
-6 -40 -9 -82 -4 -42 -9 -87 -12 -100 -11 -54 -18 -396 -10 -512 3 -42 1 -55
-7 -50 -9 5 -9 3 -1 -8 6 -8 17 -66 24 -129 7 -63 14 -124 16 -135 5 -25 13
-72 19 -109 2 -16 7 -31 9 -34 3 -3 0 -12 -7 -20 -10 -13 -9 -14 2 -7 11 6 13
1 9 -23 -2 -17 -1 -29 3 -26 11 6 23 -62 13 -77 -5 -8 -3 -10 6 -4 10 6 12 4
7 -8 -4 -10 -2 -17 4 -17 7 0 9 -12 7 -29 -2 -17 -1 -28 3 -25 5 2 11 -12 16
-33 9 -46 8 -44 16 -63 3 -8 22 -64 42 -125 33 -99 70 -195 95 -250 5 -11 11
-27 12 -35 2 -8 9 -21 16 -29 7 -7 11 -20 8 -28 -3 -8 -2 -12 2 -9 7 4 39 -55
34 -62 -2 -1 5 -10 13 -19 9 -9 14 -24 12 -35 -3 -10 -1 -16 3 -13 5 3 21 -18
37 -47 54 -98 75 -133 84 -143 13 -14 11 -27 -4 -19 -7 4 -9 3 -4 -2 5 -5 13
-9 19 -9 5 0 20 -16 32 -37 11 -20 39 -62 61 -95 22 -32 38 -59 37 -61 -2 -2
11 -16 28 -32 17 -16 29 -34 25 -40 -4 -6 -3 -9 2 -8 4 2 8 1 8 -2 1 -3 13
-17 28 -33 17 -16 25 -32 21 -40 -4 -6 -4 -9 0 -5 9 7 56 -31 56 -45 0 -5 12
-20 27 -33 23 -20 25 -25 13 -41 -10 -13 -11 -15 -1 -6 16 14 41 6 41 -13 0
-8 5 -14 11 -14 5 0 7 -5 4 -10 -4 -6 -3 -9 2 -8 14 4 163 -145 156 -155 -3
-6 -2 -7 4 -4 14 9 55 -32 47 -45 -4 -7 -2 -8 5 -4 13 9 43 -18 33 -29 -4 -5
-2 -5 4 -2 14 8 47 -26 37 -38 -5 -4 -3 -5 3 -2 13 8 86 -47 96 -71 4 -11 7
-12 7 -4 1 16 36 -15 36 -32 1 -6 7 -10 15 -8 7 2 16 -1 19 -5 3 -5 38 -30 78
-57 40 -26 71 -53 70 -59 -1 -7 6 -11 16 -9 24 4 49 -17 42 -36 -4 -12 -3 -12
9 -3 11 9 17 8 29 -4 9 -8 18 -15 21 -15 3 0 34 -17 68 -38 35 -21 84 -48 111
-61 26 -13 47 -27 47 -32 0 -5 3 -8 8 -8 19 3 33 -2 27 -11 -3 -5 0 -7 8 -4
15 5 116 -41 128 -59 3 -5 9 -8 13 -8 25 4 36 0 30 -11 -5 -7 -2 -9 8 -5 9 3
28 -1 43 -9 15 -8 34 -14 42 -14 8 0 12 -4 8 -9 -3 -6 3 -10 12 -9 25 0 48 -7
122 -36 36 -14 72 -26 82 -26 9 0 19 -7 23 -15 3 -8 11 -15 18 -15 9 0 8 3 -2
10 -20 13 -8 13 27 -1 32 -12 40 -14 108 -30 28 -6 55 -15 60 -19 6 -4 18 -6
28 -5 9 2 17 -1 17 -6 0 -4 7 -6 15 -3 8 3 20 2 27 -2 7 -4 22 -9 34 -10 23
-3 85 -12 106 -16 7 -2 19 -10 26 -18 8 -9 11 -10 7 -2 -11 21 116 6 134 -16
12 -14 13 -14 8 -1 -4 13 0 15 21 11 15 -2 36 -12 47 -21 18 -15 19 -15 6 2
-12 16 -11 17 10 13 13 -3 24 -5 24 -6 0 -1 18 -3 40 -4 22 -1 46 -5 53 -10 7
-4 18 -4 25 1 7 5 18 8 25 7 6 -1 44 -2 83 -3 52 -1 69 -4 64 -14 -4 -6 -1 -5
7 4 9 11 21 13 40 8 15 -4 29 -5 32 -2 12 12 83 9 106 -5 22 -14 24 -14 13 0
-11 13 -9 15 15 16 15 1 40 4 55 6 22 3 27 0 23 -13 -6 -15 -5 -15 6 0 14 18
112 33 101 16 -4 -6 -1 -7 8 -1 17 11 33 14 86 18 23 2 46 7 51 10 6 3 29 8
53 11 23 3 62 10 86 16 24 5 49 7 54 4 5 -4 9 -1 9 5 0 6 11 8 25 6 14 -3 25
0 25 6 0 5 7 8 15 4 8 -3 15 0 15 5 0 7 11 9 25 7 15 -3 22 -1 18 5 -4 6 0 8
10 4 9 -3 19 -2 22 4 4 5 10 7 15 4 5 -3 12 -1 15 5 5 8 12 7 23 -2 9 -7 13
-8 9 -2 -8 14 86 46 110 37 11 -4 14 -3 9 5 -4 7 -2 12 6 12 12 0 87 27 157
58 18 8 40 15 47 16 8 1 20 8 26 14 7 7 18 12 25 12 7 0 36 11 64 24 28 14 57
22 65 19 8 -3 14 -2 12 3 -2 5 0 9 3 9 4 0 15 7 25 16 11 8 57 35 104 58 47
24 94 51 104 60 16 13 18 13 12 1 -4 -8 0 -6 8 4 9 11 16 17 16 13 0 -4 9 2
20 13 12 12 25 18 29 15 5 -2 12 2 15 11 4 9 9 14 12 11 4 -3 11 -2 18 4 53
43 117 89 124 89 5 0 17 9 27 20 20 22 40 27 29 8 -4 -8 -3 -10 2 -5 5 5 9 13
9 19 0 6 9 16 20 22 11 6 24 17 28 24 5 7 12 10 18 7 5 -4 9 1 9 11 0 14 3 14
15 4 13 -11 14 -10 9 4 -3 9 -1 17 5 17 32 4 36 6 34 16 -1 5 14 23 33 39 20
16 61 52 92 81 31 28 60 49 66 46 5 -3 6 -1 3 4 -7 12 26 46 36 38 4 -3 5 -2
2 1 -2 4 17 29 43 56 26 27 49 54 50 59 2 5 10 9 18 9 9 0 13 4 10 9 -8 12 40
54 53 47 7 -4 8 -1 5 9 -8 19 14 47 30 38 6 -3 8 -3 4 2 -11 11 12 36 25 28 6
-3 7 -1 3 6 -10 15 13 43 28 34 6 -3 8 -3 4 2 -11 11 11 47 24 39 6 -4 8 -3 4
4 -3 6 9 25 26 43 18 18 27 29 19 24 -9 -5 -7 2 5 17 10 14 23 23 28 20 5 -3
6 0 2 6 -4 7 5 23 20 37 15 14 24 25 20 25 -7 0 21 47 40 67 6 7 15 9 19 5 5
-4 5 -1 1 5 -10 18 25 75 43 68 10 -4 11 -2 3 7 -12 15 29 83 43 70 5 -4 5 -2
2 5 -9 14 57 146 67 135 4 -4 7 -2 5 3 -4 16 13 65 20 60 4 -2 8 2 8 9 0 8 10
36 22 62 37 79 49 108 56 132 3 12 10 22 15 22 5 0 7 6 4 14 -3 8 -1 17 5 21
6 3 11 15 11 26 0 10 4 19 10 19 5 0 6 7 3 17 -4 10 -2 14 4 10 7 -5 9 1 5 15
-4 16 -2 19 9 13 8 -5 11 -5 7 -1 -3 4 0 29 8 54 8 26 17 54 19 62 2 8 18 63
34 123 17 59 31 116 31 127 0 11 3 20 8 20 4 0 8 15 10 33 2 32 9 72 12 72 1
0 3 14 4 30 2 17 6 44 9 60 4 17 9 50 13 75 3 25 8 56 10 70 2 14 6 63 9 110
11 147 12 156 19 168 4 7 3 12 -1 12 -10 0 -9 122 1 138 4 7 4 12 -1 12 -4 0
-8 35 -9 78 -1 87 -12 254 -19 292 -3 14 -7 44 -10 67 -7 62 -16 116 -20 133
-2 8 -7 31 -10 50 -12 78 -59 260 -102 395 -62 193 -186 478 -274 627 -16 27
-26 54 -23 62 8 21 36 29 46 14 6 -9 8 -8 6 5 -2 13 9 26 34 40 20 12 71 43
113 70 42 26 81 45 86 41 5 -3 8 0 7 6 -2 7 12 21 31 32 27 16 36 17 43 6 8
-10 9 -9 5 4 -8 23 16 41 32 25 10 -9 11 -8 5 7 -5 13 -4 17 4 12 7 -4 12 -3
12 1 0 5 26 24 58 43 31 19 60 39 64 45 5 6 8 6 8 0 0 -5 4 -5 8 2 4 6 14 13
22 15 8 2 21 11 28 21 7 9 18 15 23 12 5 -4 9 -2 9 3 0 5 14 15 30 22 17 7 30
17 30 22 0 6 7 7 16 4 8 -3 12 -2 9 4 -3 6 -2 10 4 10 5 0 11 -3 14 -7 2 -5 2
-3 1 4 -5 19 15 26 31 13 11 -9 15 -9 15 -1 0 6 -5 11 -12 11 -6 0 9 21 35 47
26 26 47 51 47 55 0 5 4 6 10 3 6 -3 7 1 4 9 -3 9 -2 16 4 16 5 0 13 11 16 25
4 16 11 23 18 19 6 -4 8 -3 5 3 -3 5 2 36 13 69 49 159 3 347 -114 467 -123
126 -297 176 -465 132 -74 -19 -85 -25 -467 -265 -179 -113 -338 -212 -353
-220 -14 -9 -52 -33 -83 -53 -31 -20 -61 -37 -66 -37 -5 0 -20 10 -34 23 -14
12 -42 38 -64 58 -76 68 -240 192 -364 274 -184 120 -307 187 -530 288 -192
86 -571 200 -735 221 -16 2 -57 9 -90 15 -33 5 -87 13 -120 17 -33 3 -69 8
-80 11 -24 6 -541 14 -546 8z m396 -958 c39 -1 65 -7 73 -17 9 -9 11 -10 7 -2
-10 18 58 10 82 -9 9 -8 14 -9 10 -2 -5 8 5 10 35 6 24 -2 50 -7 58 -10 8 -4
29 -8 45 -10 17 -2 44 -8 60 -13 17 -4 46 -11 66 -14 21 -4 42 -13 49 -21 7
-8 18 -15 24 -15 6 0 4 5 -4 11 -12 9 -12 10 3 5 10 -3 23 -6 28 -6 6 0 8 -4
4 -9 -3 -5 -1 -12 5 -16 5 -3 10 -1 10 4 0 15 15 14 58 -6 45 -20 47 -20 73
-22 11 0 17 -5 14 -11 -4 -6 5 -10 19 -10 14 0 26 -5 26 -11 0 -6 7 -9 15 -5
8 3 24 -5 36 -17 12 -12 18 -16 14 -8 -5 8 -4 12 1 9 5 -2 26 -12 47 -22 20
-9 37 -19 37 -22 0 -3 -5 -2 -12 2 -6 4 -8 3 -5 -4 4 -5 16 -8 27 -5 15 4 20
0 21 -13 0 -11 3 -14 5 -8 4 9 14 8 37 -4 18 -8 34 -18 37 -22 3 -3 20 -12 38
-19 17 -8 32 -17 32 -22 0 -5 5 -9 11 -9 12 0 131 -79 141 -94 5 -7 8 -7 8 -1
0 6 6 3 13 -5 7 -8 24 -21 40 -29 15 -8 27 -20 27 -28 0 -7 4 -12 8 -10 13 3
82 -55 76 -65 -3 -5 -2 -8 3 -7 20 3 34 -2 28 -11 -3 -5 1 -10 9 -10 9 0 16
-4 16 -10 0 -5 7 -10 16 -10 8 0 13 -4 10 -9 -3 -5 1 -12 10 -15 8 -3 12 -11
8 -17 -4 -8 -3 -9 4 -5 7 4 12 2 12 -4 0 -6 5 -8 10 -5 6 3 10 -2 10 -11 0
-10 3 -14 6 -11 6 6 94 -76 94 -88 0 -3 17 -21 37 -40 20 -19 33 -35 28 -35
-5 0 -1 -6 10 -13 10 -8 15 -19 11 -25 -3 -6 -1 -14 5 -18 8 -4 9 -3 5 4 -4 7
-2 12 4 12 6 0 14 -8 17 -17 4 -10 13 -24 20 -31 7 -8 11 -18 7 -23 -3 -5 0
-8 6 -7 7 2 17 -6 23 -17 7 -10 18 -25 25 -33 7 -7 9 -19 5 -25 -3 -7 -2 -9 2
-4 11 9 87 -104 80 -120 -2 -7 0 -12 6 -10 5 1 19 -16 32 -38 12 -22 26 -43
30 -46 5 -4 10 -18 10 -32 1 -14 5 -23 8 -22 6 4 92 -172 87 -178 -2 -2 4 -14
13 -27 9 -14 15 -33 13 -42 -1 -10 1 -18 5 -18 12 0 42 -100 34 -113 -4 -6 -1
-7 7 -2 10 6 12 3 8 -13 -4 -12 -3 -20 2 -17 10 6 23 -62 14 -77 -4 -7 -3 -8
4 -4 7 4 13 -7 17 -31 4 -21 11 -49 16 -63 5 -14 9 -43 11 -65 1 -22 5 -44 8
-50 7 -9 12 -45 28 -190 3 -33 6 -136 6 -230 0 -219 -10 -323 -46 -495 -172
-821 -743 -1494 -1524 -1795 -94 -37 -185 -67 -204 -67 -3 0 -16 -4 -29 -9
-26 -10 -173 -44 -231 -53 -19 -3 -44 -7 -55 -10 -71 -14 -186 -21 -365 -21
-174 0 -236 3 -350 19 -176 24 -392 82 -558 147 -71 28 -282 129 -292 139 -5
5 -35 23 -75 44 -32 18 -170 108 -175 115 -3 4 -21 18 -40 31 -39 27 -64 48
-154 129 -348 311 -593 702 -725 1156 -11 39 -22 81 -25 95 -2 14 -9 46 -15
73 -6 26 -14 64 -17 85 -3 20 -9 62 -14 92 -24 146 -29 412 -8 438 11 13 11
14 0 8 -11 -6 -12 6 -7 61 3 37 8 83 10 101 3 18 8 54 11 80 3 25 11 73 19
104 7 32 13 61 13 63 1 23 26 114 31 111 3 -2 7 8 7 22 2 25 10 63 14 70 4 3
7 21 9 38 0 8 5 12 11 9 6 -3 7 1 4 9 -3 9 -2 16 2 16 5 0 10 12 11 26 0 15 5
29 10 33 4 3 9 13 11 21 6 34 45 120 54 120 5 0 6 4 3 10 -6 10 22 69 40 82 6
4 6 8 1 8 -5 0 -3 7 4 15 7 8 9 15 5 15 -4 0 -2 7 5 15 17 21 49 76 56 98 4 9
9 17 13 17 3 0 12 14 19 30 8 17 17 28 21 25 4 -2 8 1 8 8 0 19 34 68 43 62 4
-3 7 3 6 13 0 9 4 16 11 15 7 -2 10 4 7 12 -4 8 -1 15 5 15 6 0 11 7 11 16 0
8 5 12 10 9 6 -3 10 -1 10 6 0 12 56 87 91 121 9 9 20 14 25 10 4 -4 4 -2 0 5
-12 21 275 298 299 289 9 -3 12 0 9 8 -6 15 22 29 38 19 7 -3 8 -1 4 6 -9 14
34 52 52 46 7 -3 11 -1 8 4 -9 15 54 58 77 52 5 -1 6 3 2 9 -4 6 7 15 24 21
17 6 31 15 31 21 0 5 5 8 12 6 6 -2 22 6 36 19 13 12 28 20 33 17 5 -3 9 -1 9
4 0 13 121 73 133 65 5 -3 7 -2 4 4 -7 11 40 34 178 87 65 25 92 31 97 23 5
-8 8 -5 8 7 0 14 6 17 25 14 13 -3 23 -1 22 5 -1 6 9 11 23 12 14 1 35 7 48
14 20 11 26 8 23 -12 -1 -5 3 -6 9 -2 6 3 8 11 5 16 -6 9 8 13 33 10 6 -1 12
4 12 10 0 7 9 5 22 -7 19 -15 20 -16 9 -1 -15 19 -1 23 18 5 10 -11 11 -10 6
5 -6 13 -2 17 19 19 14 0 32 1 39 2 6 1 11 -7 11 -16 -1 -10 2 -15 7 -12 5 3
8 12 7 21 -2 11 7 16 32 19 19 2 49 6 65 9 72 13 76 13 71 -4 -5 -13 -3 -13 8
2 11 14 34 18 132 22 65 3 119 6 120 8 1 1 33 0 71 -1 37 -2 95 -4 128 -5z"/>
<path d="M3536 7158 c3 -5 10 -6 15 -3 13 9 11 12 -6 12 -8 0 -12 -4 -9 -9z"/>
<path d="M3639 7153 c-13 -16 -12 -17 4 -4 9 7 17 15 17 17 0 8 -8 3 -21 -13z"/>
<path d="M3785 7120 c-3 -6 1 -7 9 -4 18 7 21 14 7 14 -6 0 -13 -4 -16 -10z"/>
<path d="M3965 7100 c-3 -6 1 -7 9 -4 18 7 21 14 7 14 -6 0 -13 -4 -16 -10z"/>
<path d="M4073 7085 c0 -8 4 -12 9 -9 5 3 6 10 3 15 -9 13 -12 11 -12 -6z"/>
<path d="M2420 6940 c-12 -7 -10 -9 7 -7 12 0 19 5 17 9 -6 10 -6 10 -24 -2z"/>
<path d="M4600 6886 c0 -2 7 -7 16 -10 8 -3 12 -2 9 4 -6 10 -25 14 -25 6z"/>
<path d="M2049 6723 c-13 -16 -12 -17 4 -4 9 7 17 15 17 17 0 8 -8 3 -21 -13z"/>
<path d="M4910 6679 c0 -5 5 -7 10 -4 6 3 10 8 10 11 0 2 -4 4 -10 4 -5 0 -10
-5 -10 -11z"/>
<path d="M1690 6426 c0 -2 7 -7 16 -10 8 -3 12 -2 9 4 -6 10 -25 14 -25 6z"/>
<path d="M1639 6353 c-13 -16 -12 -17 4 -4 9 7 17 15 17 17 0 8 -8 3 -21 -13z"/>
<path d="M7705 2683 c-134 -19 -310 -89 -418 -167 -296 -211 -447 -553 -402
-906 5 -36 9 -75 9 -87 1 -13 4 -23 9 -23 4 0 7 -10 7 -23 0 -13 5 -28 10 -33
6 -6 12 -24 13 -41 1 -17 5 -29 10 -26 6 4 9 -12 6 -33 0 -4 3 -10 8 -13 9 -6
53 -78 53 -87 0 -3 -5 -2 -12 2 -7 5 -8 3 -4 -5 5 -7 10 -10 13 -7 3 3 20 -16
37 -42 29 -44 61 -84 96 -120 8 -9 15 -19 15 -23 0 -4 4 -11 9 -16 5 -5 6 -2
2 7 -4 8 2 4 13 -9 12 -13 21 -21 21 -18 0 4 12 -6 28 -20 15 -14 26 -30 24
-35 -1 -5 3 -8 10 -7 24 3 41 -1 35 -8 -4 -3 6 -13 21 -21 61 -33 143 -72 152
-72 6 0 10 -5 10 -10 0 -6 6 -10 13 -9 20 3 77 -13 77 -21 0 -5 9 -6 20 -3 18
5 25 -5 21 -30 -1 -5 3 -6 9 -2 6 3 7 11 4 17 -5 8 -1 9 10 5 10 -4 24 -7 32
-7 10 0 12 -5 8 -12 -5 -9 -2 -9 9 1 13 10 17 10 17 1 0 -9 4 -9 13 -2 7 6 18
7 26 2 8 -4 20 -6 28 -3 8 3 21 -3 29 -13 8 -12 12 -13 9 -4 -4 12 5 15 45 16
27 1 47 -2 45 -6 -3 -5 -1 -12 5 -15 6 -4 9 -1 8 7 -2 8 7 13 23 14 14 1 31 4
38 8 6 4 11 1 11 -6 0 -10 2 -10 9 1 5 8 27 14 49 15 22 1 38 4 35 9 -4 7 21
11 41 8 5 -1 12 2 15 6 7 9 98 44 119 45 6 1 12 5 12 8 0 4 14 13 30 20 17 7
49 26 70 41 22 16 40 27 40 25 0 -3 11 5 23 17 61 57 86 77 97 77 6 0 9 4 6 8
-6 11 30 43 39 34 3 -4 3 1 -1 11 -3 9 -1 17 4 17 6 0 14 9 17 21 5 15 13 19
27 16 14 -4 17 -2 9 7 -8 9 -6 18 7 32 9 10 28 40 42 66 14 27 28 48 32 48 5
0 8 10 8 23 0 12 7 33 16 45 8 12 12 22 8 22 -5 0 -3 5 4 12 7 7 12 22 12 35
0 13 3 23 8 23 4 0 8 10 8 23 2 21 11 62 14 62 2 0 7 64 11 127 1 31 6 45 13
41 8 -5 8 -2 0 8 -6 8 -14 50 -17 94 -3 44 -10 92 -15 105 -5 14 -10 28 -10
33 -3 59 -60 191 -125 291 -69 105 -172 209 -279 278 -114 75 -174 100 -353
145 -26 7 -261 11 -300 6z"/>
<path d="M5913 2325 c0 -8 4 -12 9 -9 5 3 6 10 3 15 -9 13 -12 11 -12 -6z"/>
<path d="M1110 2199 c0 -5 5 -7 10 -4 6 3 10 8 10 11 0 2 -4 4 -10 4 -5 0 -10
-5 -10 -11z"/>
<path d="M1513 1885 c0 -8 4 -12 9 -9 5 3 6 10 3 15 -9 13 -12 11 -12 -6z"/>
<path d="M5379 1873 c-13 -16 -12 -17 4 -4 9 7 17 15 17 17 0 8 -8 3 -21 -13z"/>
<path d="M1635 1811 c-3 -5 -2 -12 3 -15 5 -3 9 1 9 9 0 17 -3 19 -12 6z"/>
<path d="M5256 1798 c3 -5 10 -6 15 -3 13 9 11 12 -6 12 -8 0 -12 -4 -9 -9z"/>
<path d="M1776 1722 c-3 -5 1 -9 9 -9 8 0 12 4 9 9 -3 4 -7 8 -9 8 -2 0 -6 -4
-9 -8z"/>
<path d="M1830 1686 c0 -2 7 -7 16 -10 8 -3 12 -2 9 4 -6 10 -25 14 -25 6z"/>
<path d="M1995 1600 c3 -5 8 -10 11 -10 2 0 4 5 4 10 0 6 -5 10 -11 10 -5 0
-7 -4 -4 -10z"/>
<path d="M2290 1500 c0 -5 5 -10 11 -10 5 0 7 5 4 10 -3 6 -8 10 -11 10 -2 0
-4 -4 -4 -10z"/>
<path d="M4620 1500 c-8 -5 -10 -10 -5 -10 6 0 17 5 25 10 8 5 11 10 5 10 -5
0 -17 -5 -25 -10z"/>
<path d="M2376 1467 c3 -10 9 -15 12 -12 3 3 0 11 -7 18 -10 9 -11 8 -5 -6z"/>
<path d="M4136 1358 c3 -4 11 -5 19 -1 21 7 19 12 -4 10 -11 0 -18 -5 -15 -9z"/>
<path d="M2853 1345 c0 -8 4 -12 9 -9 5 3 6 10 3 15 -9 13 -12 11 -12 -6z"/>
<path d="M2962 1325 c15 -16 20 -17 30 -6 11 11 10 13 0 7 -7 -4 -21 -2 -30 5
-15 12 -15 11 0 -6z"/>
<path d="M3930 1320 c0 -5 5 -10 11 -10 5 0 7 5 4 10 -3 6 -8 10 -11 10 -2 0
-4 -4 -4 -10z"/>
<path d="M8393 925 c0 -8 4 -12 9 -9 5 3 6 10 3 15 -9 13 -12 11 -12 -6z"/>
<path d="M8306 882 c-3 -5 1 -9 9 -9 8 0 12 4 9 9 -3 4 -7 8 -9 8 -2 0 -6 -4
-9 -8z"/>
<path d="M7390 859 c0 -5 5 -7 10 -4 6 3 10 8 10 11 0 2 -4 4 -10 4 -5 0 -10
-5 -10 -11z"/>
<path d="M8190 819 c0 -5 5 -7 10 -4 6 3 10 8 10 11 0 2 -4 4 -10 4 -5 0 -10
-5 -10 -11z"/>
<path d="M7575 780 c-3 -5 -1 -10 4 -10 6 0 11 5 11 10 0 6 -2 10 -4 10 -3 0
-8 -4 -11 -10z"/>
</g>
</svg>
